<?xml version="1.0" encoding="UTF-8"?>
<!DOCTYPE svg PUBLIC "-//W3C//DTD SVG 1.1//EN" "http://www.w3.org/Graphics/SVG/1.1/DTD/svg11.dtd">
<svg version="1.1" xmlns="http://www.w3.org/2000/svg" xmlns:xlink="http://www.w3.org/1999/xlink" x="0" y="0" width="460" height="570" viewBox="0, 0, 460, 570">
  <defs>
    <linearGradient id="Gradient_1" gradientUnits="userSpaceOnUse" x1="230.105" y1="115.33" x2="230.105" y2="565.097">
      <stop offset="0" stop-color="#808080"/>
      <stop offset="0.541" stop-color="#666666"/>
      <stop offset="1" stop-color="#4D4D4D"/>
    </linearGradient>
    <linearGradient id="Gradient_2" gradientUnits="userSpaceOnUse" x1="230.105" y1="560.063" x2="230.105" y2="120.365">
      <stop offset="0" stop-color="#333333"/>
      <stop offset="0.541" stop-color="#CCCCCC"/>
      <stop offset="1" stop-color="#B3B3B3"/>
    </linearGradient>
    <linearGradient id="Gradient_3" gradientUnits="userSpaceOnUse" x1="22.842" y1="340.214" x2="437.367" y2="340.214">
      <stop offset="0" stop-color="#808080"/>
      <stop offset="0.541" stop-color="#999999"/>
      <stop offset="1" stop-color="#999999"/>
    </linearGradient>
    <linearGradient id="Gradient_4" gradientUnits="userSpaceOnUse" x1="230.105" y1="547.476" x2="230.105" y2="132.951">
      <stop offset="0" stop-color="#666666"/>
      <stop offset="0.541" stop-color="#999999"/>
      <stop offset="1" stop-color="#666666"/>
    </linearGradient>
  </defs>
  <g id="Layer_1">
    <path d="M251.25,122.528 L208.959,122.528 L208.959,68.153 L251.25,68.153 z" fill="#999999"/>
    <path d="M230.105,122.528 L218.829,122.528 L218.829,68.153 L230.105,68.153 z" fill="#B3B3B3"/>
    <path d="M246.775,122.528 L241.138,122.528 L241.138,68.153 L246.775,68.153 z" fill="#666666"/>
    <path d="M260.313,12.37 L199.896,12.37 L199.896,62.717 L260.313,62.717 z" fill="#999999"/>
    <g>
      <path d="M260.816,63.221 L199.393,63.221 L202.479,67.902 C202.789,68.373 203.316,68.657 203.88,68.657 L256.329,68.657 C256.894,68.657 257.42,68.373 257.731,67.902 z" fill="#4D4D4D"/>
      <path d="M260.816,11.867 L199.393,11.867 L202.479,7.185 C202.789,6.714 203.316,6.431 203.88,6.431 L256.329,6.431 C256.894,6.431 257.42,6.714 257.731,7.185 z" fill="#4D4D4D"/>
      <path d="M200.4,62.214 L259.809,62.214 L259.809,12.874 L200.4,12.874 z M260.816,63.221 L199.393,63.221 L199.393,11.867 L260.816,11.867 z" fill="#4D4D4D"/>
      <path d="M258.189,62.717 L257.183,62.717 L257.183,12.37 L258.189,12.37 z" fill="#4D4D4D"/>
      <path d="M255.563,62.717 L254.556,62.717 L254.556,12.37 L255.563,12.37 z" fill="#4D4D4D"/>
      <path d="M252.936,62.717 L251.929,62.717 L251.929,12.37 L252.936,12.37 z" fill="#4D4D4D"/>
      <path d="M250.309,62.717 L249.302,62.717 L249.302,12.37 L250.309,12.37 z" fill="#4D4D4D"/>
      <path d="M247.682,62.717 L246.675,62.717 L246.675,12.37 L247.682,12.37 z" fill="#4D4D4D"/>
      <path d="M245.056,62.717 L244.049,62.717 L244.049,12.37 L245.056,12.37 z" fill="#4D4D4D"/>
      <path d="M242.429,62.717 L241.422,62.717 L241.422,12.37 L242.429,12.37 z" fill="#4D4D4D"/>
      <path d="M239.802,62.717 L238.795,62.717 L238.795,12.37 L239.802,12.37 z" fill="#4D4D4D"/>
      <path d="M237.175,62.717 L236.168,62.717 L236.168,12.37 L237.175,12.37 z" fill="#4D4D4D"/>
      <path d="M234.548,62.717 L233.541,62.717 L233.541,12.37 L234.548,12.37 z" fill="#4D4D4D"/>
      <path d="M231.921,62.717 L230.915,62.717 L230.915,12.37 L231.921,12.37 z" fill="#4D4D4D"/>
      <path d="M229.295,62.717 L228.288,62.717 L228.288,12.37 L229.295,12.37 z" fill="#4D4D4D"/>
      <path d="M226.668,62.717 L225.661,62.717 L225.661,12.37 L226.668,12.37 z" fill="#4D4D4D"/>
      <path d="M224.041,62.717 L223.034,62.717 L223.034,12.37 L224.041,12.37 z" fill="#4D4D4D"/>
      <path d="M221.414,62.717 L220.407,62.717 L220.407,12.37 L221.414,12.37 z" fill="#4D4D4D"/>
      <path d="M218.788,62.717 L217.781,62.717 L217.781,12.37 L218.788,12.37 z" fill="#4D4D4D"/>
      <path d="M216.161,62.717 L215.154,62.717 L215.154,12.37 L216.161,12.37 z" fill="#4D4D4D"/>
      <path d="M213.534,62.717 L212.527,62.717 L212.527,12.37 L213.534,12.37 z" fill="#4D4D4D"/>
      <path d="M210.907,62.717 L209.9,62.717 L209.9,12.37 L210.907,12.37 z" fill="#4D4D4D"/>
      <path d="M208.28,62.717 L207.273,62.717 L207.273,12.37 L208.28,12.37 z" fill="#4D4D4D"/>
      <path d="M205.654,62.717 L204.647,62.717 L204.647,12.37 L205.654,12.37 z" fill="#4D4D4D"/>
      <path d="M203.027,62.717 L202.02,62.717 L202.02,12.37 L203.027,12.37 z" fill="#4D4D4D"/>
      <path d="M251.25,68.657 L208.959,68.657 L208.959,71.332 L251.25,71.332 z" fill="#666666"/>
      <path d="M251.25,122.528 L245.613,122.528 L245.613,68.153 L251.25,68.153 z" fill="#4D4D4D"/>
      <path d="M214.597,122.528 L208.959,122.528 L208.959,68.153 L214.597,68.153 z" fill="#4D4D4D"/>
      <path d="M343.297,176.779 L314.697,160.434 L335.713,123.662 L364.313,140.008 z" fill="#999999"/>
      <path d="M328.997,168.606 L321.372,164.248 L342.388,127.477 L350.013,131.835 z" fill="#B3B3B3"/>
      <path d="M340.271,175.05 L336.458,172.871 L357.475,136.099 L361.287,138.278 z" fill="#666666"/>
      <path d="M392.002,105.787 L351.145,82.436 L331.686,116.483 L372.543,139.835 z" fill="#999999"/>
      <path d="M372.689,140.37 L331.151,116.629 L331.428,120.988 C331.456,121.426 331.702,121.822 332.084,122.04 L367.553,142.312 C367.935,142.53 368.401,142.541 368.793,142.343 z" fill="#4D4D4D"/>
      <path d="M392.537,105.641 L350.999,81.901 L354.895,79.928 C355.288,79.729 355.753,79.741 356.134,79.959 L391.604,100.231 C391.986,100.449 392.232,100.844 392.26,101.283 z" fill="#4D4D4D"/>
      <path d="M332.221,116.338 L372.397,139.3 L391.467,105.933 L351.291,82.971 z M372.689,140.37 L331.151,116.629 L351,81.901 L392.537,105.641 z" fill="#4D4D4D"/>
      <path d="M371.107,139.014 L370.426,138.625 L389.885,104.577 L390.566,104.967 z" fill="#4D4D4D"/>
      <path d="M369.33,137.999 L368.65,137.609 L388.109,103.562 L388.79,103.951 z" fill="#4D4D4D"/>
      <path d="M367.554,136.983 L366.873,136.594 L386.333,102.547 L387.014,102.936 z" fill="#4D4D4D"/>
      <path d="M365.778,135.968 L365.097,135.579 L384.556,101.531 L385.237,101.921 z" fill="#4D4D4D"/>
      <path d="M364.001,134.953 L363.32,134.564 L382.78,100.516 L383.461,100.905 z" fill="#4D4D4D"/>
      <path d="M362.225,133.938 L361.544,133.549 L381.004,99.501 L381.684,99.89 z" fill="#4D4D4D"/>
      <path d="M360.449,132.922 L359.768,132.533 L379.227,98.486 L379.908,98.875 z" fill="#4D4D4D"/>
      <path d="M358.672,131.907 L357.991,131.518 L377.451,97.47 L378.132,97.86 z" fill="#4D4D4D"/>
      <path d="M356.896,130.892 L356.215,130.503 L375.674,96.455 L376.355,96.844 z" fill="#4D4D4D"/>
      <path d="M355.12,129.877 L354.439,129.487 L373.898,95.44 L374.579,95.829 z" fill="#4D4D4D"/>
      <path d="M353.343,128.861 L352.662,128.472 L372.122,94.425 L372.802,94.814 z" fill="#4D4D4D"/>
      <path d="M351.567,127.846 L350.886,127.457 L370.345,93.409 L371.026,93.799 z" fill="#4D4D4D"/>
      <path d="M349.79,126.831 L349.109,126.441 L368.569,92.394 L369.25,92.783 z" fill="#4D4D4D"/>
      <path d="M348.014,125.815 L347.333,125.426 L366.792,91.379 L367.473,91.768 z" fill="#4D4D4D"/>
      <path d="M346.237,124.8 L345.557,124.411 L365.016,90.364 L365.697,90.753 z" fill="#4D4D4D"/>
      <path d="M344.461,123.785 L343.78,123.396 L363.24,89.348 L363.921,89.738 z" fill="#4D4D4D"/>
      <path d="M342.685,122.77 L342.004,122.38 L361.463,88.333 L362.144,88.722 z" fill="#4D4D4D"/>
      <path d="M340.908,121.754 L340.227,121.365 L359.687,87.318 L360.368,87.707 z" fill="#4D4D4D"/>
      <path d="M339.132,120.739 L338.451,120.35 L357.91,86.302 L358.591,86.692 z" fill="#4D4D4D"/>
      <path d="M337.355,119.724 L336.675,119.335 L356.134,85.287 L356.815,85.676 z" fill="#4D4D4D"/>
      <path d="M335.579,118.709 L334.898,118.319 L354.358,84.272 L355.039,84.661 z" fill="#4D4D4D"/>
      <path d="M333.803,117.693 L333.122,117.304 L352.581,83.257 L353.262,83.646 z" fill="#4D4D4D"/>
      <path d="M364.119,140.349 L335.519,124.003 L334.485,125.812 L363.085,142.158 z" fill="#666666"/>
      <path d="M343.297,176.779 L339.485,174.6 L360.501,137.829 L364.313,140.008 z" fill="#4D4D4D"/>
      <path d="M318.51,162.612 L314.697,160.433 L335.714,123.662 L339.526,125.841 z" fill="#4D4D4D"/>
    </g>
    <path d="M5.221,340.214 C5.221,464.413 105.905,565.097 230.105,565.097 L230.105,565.097 C354.304,565.097 454.988,464.413 454.988,340.214 L454.988,340.214 C454.988,216.014 354.304,115.33 230.105,115.33 L230.105,115.33 C105.905,115.33 5.221,216.014 5.221,340.214 z" fill="url(#Gradient_1)"/>
    <path d="M10.256,340.214 C10.256,461.633 108.685,560.063 230.105,560.063 L230.105,560.063 C351.524,560.063 449.954,461.633 449.954,340.214 L449.954,340.214 C449.954,218.794 351.524,120.365 230.105,120.365 L230.105,120.365 C108.685,120.365 10.256,218.794 10.256,340.214 z" fill="url(#Gradient_2)"/>
    <path d="M22.842,340.214 C22.842,454.681 115.637,547.476 230.105,547.476 L230.105,547.476 C344.572,547.476 437.367,454.681 437.367,340.214 L437.367,340.214 C437.367,225.746 344.572,132.951 230.105,132.951 L230.105,132.951 C115.637,132.951 22.842,225.746 22.842,340.214 z" fill="url(#Gradient_3)"/>
    <g>
      <path d="M429.815,340.214 C429.815,450.51 340.402,539.924 230.105,539.924 C119.808,539.924 30.394,450.51 30.394,340.214 C30.394,229.917 119.808,140.504 230.105,140.504 C340.402,140.504 429.815,229.917 429.815,340.214" fill="#CCCCCC"/>
      <path d="M230.105,145.538 C122.76,145.538 35.429,232.869 35.429,340.213 C35.429,447.558 122.76,534.889 230.105,534.889 C337.449,534.889 424.78,447.558 424.78,340.213 C424.78,232.869 337.449,145.538 230.105,145.538 M230.105,541.602 C202.919,541.602 176.544,536.277 151.714,525.774 C127.733,515.631 106.196,501.111 87.701,482.617 C69.207,464.123 54.687,442.586 44.544,418.604 C34.041,393.774 28.716,367.399 28.716,340.213 C28.716,313.028 34.041,286.654 44.544,261.823 C54.687,237.842 69.207,216.305 87.701,197.81 C106.196,179.317 127.733,164.796 151.714,154.653 C176.544,144.15 202.919,138.825 230.105,138.825 C257.29,138.825 283.665,144.15 308.495,154.653 C332.477,164.796 354.013,179.317 372.508,197.81 C391.002,216.305 405.522,237.842 415.665,261.823 C426.168,286.654 431.493,313.028 431.493,340.213 C431.493,367.399 426.168,393.774 415.665,418.604 C405.522,442.586 391.002,464.123 372.508,482.617 C354.013,501.111 332.477,515.631 308.495,525.774 C283.665,536.277 257.29,541.602 230.105,541.602" fill="#B3B3B3"/>
      <path d="M230.105,156.782 C128.96,156.782 46.673,239.069 46.673,340.214 C46.673,441.358 128.96,523.645 230.105,523.645 C331.249,523.645 413.536,441.358 413.536,340.214 C413.536,239.069 331.249,156.782 230.105,156.782 M230.105,525.994 C205.025,525.994 180.695,521.082 157.79,511.394 C135.667,502.037 115.799,488.642 98.738,471.581 C81.676,454.519 68.281,434.651 58.924,412.528 C49.236,389.624 44.324,365.293 44.324,340.214 C44.324,315.134 49.236,290.803 58.924,267.899 C68.281,245.776 81.676,225.908 98.738,208.847 C115.799,191.785 135.667,178.39 157.79,169.033 C180.695,159.345 205.025,154.433 230.105,154.433 C255.184,154.433 279.515,159.345 302.419,169.033 C324.542,178.39 344.41,191.785 361.471,208.847 C378.533,225.908 391.928,245.776 401.285,267.899 C410.973,290.803 415.885,315.134 415.885,340.214 C415.885,365.293 410.973,389.624 401.285,412.528 C391.928,434.651 378.533,454.519 361.471,471.581 C344.41,488.642 324.542,502.037 302.419,511.394 C279.515,521.082 255.184,525.994 230.105,525.994" fill="#2D2D2D"/>
      <path d="M216.346,199.845 C216.346,201.567 216.742,202.895 217.533,203.831 C218.325,204.767 219.23,205.236 220.247,205.236 C221.228,205.236 222.044,204.852 222.698,204.086 C223.351,203.32 223.678,202.063 223.678,200.316 C223.678,198.52 223.326,197.204 222.622,196.368 C221.918,195.532 221.039,195.114 219.984,195.114 C218.966,195.114 218.105,195.514 217.401,196.311 C216.698,197.11 216.346,198.287 216.346,199.845 M228.352,188.292 L223.225,188.857 C223.1,187.802 222.773,187.023 222.245,186.52 C221.718,186.018 221.033,185.766 220.191,185.766 C219.072,185.766 218.127,186.269 217.354,187.274 C216.582,188.279 216.094,190.371 215.894,193.55 C217.213,191.992 218.853,191.213 220.813,191.213 C223.024,191.213 224.918,192.055 226.495,193.739 C228.072,195.422 228.861,197.596 228.861,200.26 C228.861,203.087 228.031,205.355 226.373,207.064 C224.714,208.773 222.585,209.627 219.984,209.627 C217.194,209.627 214.901,208.543 213.104,206.376 C211.307,204.208 210.409,200.656 210.409,195.717 C210.409,190.654 211.345,187.004 213.217,184.767 C215.089,182.531 217.521,181.412 220.511,181.412 C222.61,181.412 224.347,182 225.723,183.175 C227.099,184.35 227.975,186.055 228.352,188.292" fill="#000000"/>
      <path d="M240.829,185.804 C240.188,185.804 239.616,186.008 239.114,186.417 C238.611,186.825 238.221,187.557 237.945,188.612 C237.581,189.982 237.399,192.288 237.399,195.529 C237.399,198.771 237.562,200.998 237.889,202.211 C238.215,203.423 238.627,204.23 239.123,204.633 C239.619,205.035 240.188,205.236 240.829,205.236 C241.47,205.236 242.041,205.031 242.544,204.623 C243.046,204.215 243.436,203.483 243.713,202.427 C244.077,201.07 244.259,198.771 244.259,195.529 C244.259,192.288 244.096,190.061 243.769,188.848 C243.442,187.635 243.031,186.825 242.535,186.417 C242.038,186.008 241.47,185.804 240.829,185.804 M240.829,181.413 C243.505,181.413 245.597,182.368 247.105,184.277 C248.902,186.539 249.8,190.29 249.8,195.529 C249.8,200.757 248.896,204.513 247.086,206.8 C245.591,208.685 243.505,209.627 240.829,209.627 C238.14,209.627 235.973,208.594 234.326,206.527 C232.68,204.46 231.858,200.775 231.858,195.473 C231.858,190.271 232.762,186.527 234.572,184.24 C236.067,182.355 238.153,181.413 240.829,181.413" fill="#000000"/>
    </g>
    <path d="M22.842,340.213 C22.842,454.681 115.637,547.476 230.105,547.476 L230.105,547.476 C344.572,547.476 437.367,454.681 437.367,340.213 L437.367,340.213 C437.367,225.746 344.572,132.951 230.105,132.951 L230.105,132.951 C115.637,132.951 22.842,225.746 22.842,340.213 z M30.394,340.213 C30.394,229.917 119.808,140.503 230.105,140.503 L230.105,140.503 C340.402,140.503 429.815,229.917 429.815,340.213 L429.815,340.213 C429.815,450.511 340.402,539.924 230.105,539.924 L230.105,539.924 C119.808,539.924 30.394,450.511 30.394,340.213 z" fill="url(#Gradient_4)"/>
    <g>
      <path d="M135.316,224.694 L140.593,224.147 C140.744,225.341 141.19,226.286 141.932,226.984 C142.673,227.681 143.527,228.03 144.495,228.03 C145.6,228.03 146.537,227.581 147.303,226.682 C148.069,225.784 148.453,224.43 148.453,222.621 C148.453,220.924 148.073,219.652 147.312,218.804 C146.552,217.956 145.563,217.532 144.344,217.532 C142.823,217.532 141.461,218.204 140.254,219.549 L135.957,218.927 L138.671,204.546 L152.675,204.546 L152.675,209.503 L142.685,209.503 L141.856,214.196 C143.037,213.606 144.243,213.31 145.475,213.31 C147.824,213.31 149.816,214.165 151.449,215.873 C153.083,217.582 153.9,219.8 153.9,222.527 C153.9,224.801 153.24,226.83 151.921,228.614 C150.124,231.052 147.63,232.271 144.438,232.271 C141.887,232.271 139.808,231.586 138.2,230.216 C136.591,228.847 135.63,227.006 135.316,224.694" fill="#2D2D2D"/>
      <path d="M156.783,224.694 L162.06,224.147 C162.211,225.341 162.657,226.286 163.399,226.984 C164.14,227.681 164.994,228.03 165.962,228.03 C167.068,228.03 168.004,227.581 168.77,226.682 C169.537,225.784 169.92,224.43 169.92,222.621 C169.92,220.924 169.54,219.652 168.78,218.804 C168.019,217.956 167.03,217.532 165.811,217.532 C164.291,217.532 162.928,218.204 161.722,219.549 L157.424,218.927 L160.138,204.546 L174.142,204.546 L174.142,209.503 L164.153,209.503 L163.323,214.196 C164.504,213.606 165.711,213.31 166.942,213.31 C169.292,213.31 171.283,214.165 172.917,215.873 C174.55,217.582 175.367,219.8 175.367,222.527 C175.367,224.801 174.707,226.83 173.388,228.614 C171.591,231.052 169.097,232.271 165.905,232.271 C163.355,232.271 161.275,231.586 159.667,230.216 C158.059,228.847 157.097,227.006 156.783,224.694" fill="#2D2D2D"/>
      <path d="M210.143,156.689 L211.898,173.379 L213.233,173.239 L211.479,156.548 z" fill="#2D2D2D"/>
      <path d="M195.875,175.917 L192.385,159.501 L191.072,159.78 L194.561,176.196 z" fill="#2D2D2D"/>
      <path d="M178.891,180.395 L173.705,164.434 L172.428,164.849 L177.614,180.81 z" fill="#2D2D2D"/>
      <path d="M162.469,186.624 L155.643,171.292 L154.417,171.838 L161.243,187.17 z" fill="#2D2D2D"/>
      <path d="M132.02,204.041 L122.156,190.464 L121.069,191.253 L130.934,204.831 z" fill="#2D2D2D"/>
      <path d="M118.326,215.04 L107.097,202.568 L106.099,203.467 L117.328,215.938 z" fill="#2D2D2D"/>
      <path d="M105.857,227.409 L93.386,216.18 L92.487,217.178 L104.959,228.407 z" fill="#2D2D2D"/>
      <path d="M94.75,241.015 L81.172,231.15 L80.383,232.236 L93.96,242.101 z" fill="#2D2D2D"/>
      <path d="M77.089,271.324 L61.757,264.498 L61.211,265.724 L76.543,272.55 z" fill="#2D2D2D"/>
      <path d="M70.729,287.695 L54.768,282.51 L54.353,283.786 L70.314,288.972 z" fill="#2D2D2D"/>
      <path d="M66.115,304.642 L49.7,301.153 L49.42,302.466 L65.836,305.955 z" fill="#2D2D2D"/>
      <path d="M63.298,321.979 L46.608,320.224 L46.468,321.56 L63.158,323.314 z" fill="#2D2D2D"/>
      <path d="M63.158,357.057 L46.468,358.812 L46.608,360.147 L63.298,358.393 z" fill="#2D2D2D"/>
      <path d="M65.836,374.416 L49.421,377.905 L49.7,379.218 L66.115,375.729 z" fill="#2D2D2D"/>
      <path d="M70.314,391.399 L54.353,396.585 L54.768,397.862 L70.729,392.676 z" fill="#2D2D2D"/>
      <path d="M76.543,407.821 L61.211,414.647 L61.757,415.873 L77.089,409.048 z" fill="#2D2D2D"/>
      <path d="M93.96,438.27 L80.383,448.135 L81.172,449.221 L94.75,439.357 z" fill="#2D2D2D"/>
      <path d="M104.959,451.964 L92.487,463.193 L93.386,464.191 L105.857,452.962 z" fill="#2D2D2D"/>
      <path d="M117.329,464.433 L106.099,476.905 L107.097,477.803 L118.326,465.331 z" fill="#2D2D2D"/>
      <path d="M130.934,475.541 L121.069,489.118 L122.156,489.907 L132.02,476.33 z" fill="#2D2D2D"/>
      <path d="M161.243,493.202 L154.417,508.533 L155.643,509.079 L162.469,493.748 z" fill="#2D2D2D"/>
      <path d="M177.614,499.561 L172.428,515.522 L173.705,515.937 L178.891,499.976 z" fill="#2D2D2D"/>
      <path d="M194.561,504.175 L191.072,520.591 L192.385,520.87 L195.875,504.454 z" fill="#2D2D2D"/>
      <path d="M210.143,523.682 L211.479,523.823 L213.233,507.132 L211.898,506.992 z" fill="#2D2D2D"/>
      <path d="M246.976,507.132 L248.731,523.823 L250.066,523.682 L248.312,506.992 z" fill="#2D2D2D"/>
      <path d="M264.335,504.454 L267.824,520.87 L269.137,520.591 L265.648,504.175 z" fill="#2D2D2D"/>
      <path d="M281.318,499.976 L286.504,515.937 L287.781,515.522 L282.595,499.561 z" fill="#2D2D2D"/>
      <path d="M297.74,493.748 L304.566,509.079 L305.793,508.533 L298.967,493.202 z" fill="#2D2D2D"/>
      <path d="M328.189,476.33 L338.054,489.907 L339.14,489.118 L329.276,475.541 z" fill="#2D2D2D"/>
      <path d="M341.883,465.331 L353.112,477.803 L354.11,476.905 L342.881,464.433 z" fill="#2D2D2D"/>
      <path d="M354.352,452.962 L366.824,464.191 L367.722,463.194 L355.25,451.964 z" fill="#2D2D2D"/>
      <path d="M365.46,439.357 L379.037,449.221 L379.826,448.135 L366.249,438.27 z" fill="#2D2D2D"/>
      <path d="M383.121,409.048 L398.452,415.873 L398.998,414.647 L383.667,407.821 z" fill="#2D2D2D"/>
      <path d="M389.48,392.676 L405.441,397.862 L405.856,396.585 L389.895,391.399 z" fill="#2D2D2D"/>
      <path d="M394.094,375.729 L410.51,379.218 L410.789,377.905 L394.373,374.416 z" fill="#2D2D2D"/>
      <path d="M396.911,358.393 L413.601,360.147 L413.742,358.812 L397.051,357.057 z" fill="#2D2D2D"/>
      <path d="M397.051,323.314 L413.742,321.56 L413.601,320.224 L396.911,321.978 z" fill="#2D2D2D"/>
      <path d="M394.373,305.955 L410.789,302.466 L410.51,301.153 L394.094,304.642 z" fill="#2D2D2D"/>
      <path d="M389.895,288.972 L405.856,283.786 L405.441,282.509 L389.481,287.695 z" fill="#2D2D2D"/>
      <path d="M383.667,272.55 L398.998,265.724 L398.452,264.498 L383.121,271.324 z" fill="#2D2D2D"/>
      <path d="M342.881,215.938 L354.11,203.467 L353.112,202.568 L341.883,215.04 z" fill="#2D2D2D"/>
      <path d="M355.25,228.407 L367.722,217.178 L366.824,216.18 L354.352,227.409 z" fill="#2D2D2D"/>
      <path d="M366.249,242.101 L379.826,232.236 L379.037,231.15 L365.46,241.015 z" fill="#2D2D2D"/>
      <path d="M329.276,204.831 L339.14,191.253 L338.054,190.464 L328.189,204.041 z" fill="#2D2D2D"/>
      <path d="M298.967,187.17 L305.793,171.838 L304.566,171.292 L297.74,186.624 z" fill="#2D2D2D"/>
      <path d="M282.595,180.81 L287.781,164.849 L286.504,164.434 L281.318,180.395 z" fill="#2D2D2D"/>
      <path d="M264.335,175.917 L265.648,176.196 L269.137,159.78 L267.824,159.501 z" fill="#2D2D2D"/>
      <path d="M246.976,173.239 L248.312,173.379 L250.066,156.689 L248.731,156.549 z" fill="#2D2D2D"/>
      <path d="M228.594,174.483 L231.615,174.483 L231.615,149.309 L228.594,149.309 z" fill="#2D2D2D"/>
      <path d="M148.547,195.931 L135.96,174.13 L133.344,175.641 L145.931,197.442 z" fill="#2D2D2D"/>
      <path d="M87.333,256.04 L65.532,243.453 L64.021,246.069 L85.822,258.656 z" fill="#2D2D2D"/>
      <path d="M64.374,338.703 L39.2,338.703 L39.2,341.724 L64.374,341.724 z" fill="#2D2D2D"/>
      <path d="M85.822,421.771 L64.021,434.358 L65.532,436.974 L87.333,424.387 z" fill="#2D2D2D"/>
      <path d="M145.931,482.986 L133.344,504.787 L135.96,506.297 L148.547,484.496 z" fill="#2D2D2D"/>
      <path d="M228.594,531.118 L231.615,531.118 L231.615,505.945 L228.594,505.945 z" fill="#2D2D2D"/>
      <path d="M311.662,484.496 L324.249,506.297 L326.865,504.786 L314.278,482.985 z" fill="#2D2D2D"/>
      <path d="M372.877,424.387 L394.678,436.974 L396.188,434.358 L374.387,421.771 z" fill="#2D2D2D"/>
      <path d="M395.836,341.724 L421.009,341.724 L421.009,338.703 L395.836,338.703 z" fill="#2D2D2D"/>
      <path d="M374.387,258.656 L396.188,246.069 L394.678,243.453 L372.877,256.04 z" fill="#2D2D2D"/>
      <path d="M314.278,197.442 L326.865,175.641 L324.249,174.13 L311.662,195.931 z" fill="#2D2D2D"/>
      <path d="M225.567,155.662 L225.778,165.729 L227.121,165.701 L226.91,155.634 z" fill="#2D2D2D"/>
      <path d="M221.703,155.798 L222.125,165.858 L223.466,165.802 L223.045,155.741 z" fill="#2D2D2D"/>
      <path d="M217.843,156.014 L218.475,166.064 L219.815,165.979 L219.183,155.93 z" fill="#2D2D2D"/>
      <path d="M213.988,156.311 L214.831,166.345 L216.169,166.233 L215.326,156.199 z" fill="#2D2D2D"/>
      <path d="M206.301,157.147 L207.563,167.137 L208.895,166.969 L207.633,156.979 z" fill="#2D2D2D"/>
      <path d="M202.473,157.686 L203.944,167.647 L205.272,167.451 L203.801,157.49 z" fill="#2D2D2D"/>
      <path d="M198.656,158.305 L200.335,168.233 L201.659,168.009 L199.98,158.081 z" fill="#2D2D2D"/>
      <path d="M194.854,159.003 L196.74,168.894 L198.059,168.643 L196.172,158.752 z" fill="#2D2D2D"/>
      <path d="M187.296,160.638 L189.596,170.442 L190.903,170.135 L188.603,160.332 z" fill="#2D2D2D"/>
      <path d="M187.349,170.993 L184.845,161.24 L183.545,161.574 L186.049,171.327 z" fill="#2D2D2D"/>
      <path d="M183.815,171.926 L181.107,162.227 L179.814,162.588 L182.522,172.287 z" fill="#2D2D2D"/>
      <path d="M180.301,172.932 L177.39,163.293 L176.105,163.681 L179.015,173.32 z" fill="#2D2D2D"/>
      <path d="M173.339,175.165 L170.028,165.655 L168.76,166.097 L172.071,175.606 z" fill="#2D2D2D"/>
      <path d="M169.895,176.39 L166.385,166.952 L165.127,167.42 L168.637,176.858 z" fill="#2D2D2D"/>
      <path d="M166.478,177.686 L162.771,168.324 L161.522,168.818 L165.229,178.181 z" fill="#2D2D2D"/>
      <path d="M163.088,179.055 L159.186,169.772 L157.948,170.292 L161.85,179.575 z" fill="#2D2D2D"/>
      <path d="M156.398,182.002 L152.111,172.891 L150.896,173.463 L155.183,182.574 z" fill="#2D2D2D"/>
      <path d="M153.101,183.581 L148.624,174.561 L147.421,175.158 L151.898,184.178 z" fill="#2D2D2D"/>
      <path d="M149.837,185.228 L145.172,176.304 L143.983,176.926 L148.648,185.85 z" fill="#2D2D2D"/>
      <path d="M146.609,186.943 L141.758,178.119 L140.582,178.765 L145.433,187.589 z" fill="#2D2D2D"/>
      <path d="M135.048,181.96 L133.9,182.656 L139.116,191.269 L140.264,190.573 z" fill="#2D2D2D"/>
      <path d="M137.15,192.488 L131.755,183.986 L130.621,184.705 L136.017,193.207 z" fill="#2D2D2D"/>
      <path d="M134.077,194.467 L128.504,186.08 L127.386,186.823 L132.958,195.21 z" fill="#2D2D2D"/>
      <path d="M131.045,196.51 L125.299,188.241 L124.196,189.008 L129.943,197.276 z" fill="#2D2D2D"/>
      <path d="M125.115,200.784 L119.027,192.763 L117.957,193.575 L124.045,201.596 z" fill="#2D2D2D"/>
      <path d="M122.218,203.013 L115.963,195.122 L114.911,195.956 L121.165,203.847 z" fill="#2D2D2D"/>
      <path d="M119.368,205.303 L112.95,197.544 L111.915,198.4 L118.334,206.159 z" fill="#2D2D2D"/>
      <path d="M116.567,207.652 L109.987,200.029 L108.971,200.906 L115.551,208.529 z" fill="#2D2D2D"/>
      <path d="M111.115,212.522 L104.222,205.182 L103.244,206.101 L110.137,213.441 z" fill="#2D2D2D"/>
      <path d="M108.467,215.042 L101.422,207.848 L100.463,208.787 L107.508,215.982 z" fill="#2D2D2D"/>
      <path d="M105.873,217.617 L98.678,210.572 L97.739,211.531 L104.933,218.576 z" fill="#2D2D2D"/>
      <path d="M103.332,220.246 L95.992,213.353 L95.073,214.331 L102.413,221.225 z" fill="#2D2D2D"/>
      <path d="M98.42,225.66 L90.798,219.08 L89.92,220.096 L97.543,226.676 z" fill="#2D2D2D"/>
      <path d="M96.05,228.442 L88.291,222.024 L87.435,223.058 L95.194,229.477 z" fill="#2D2D2D"/>
      <path d="M93.738,231.275 L85.847,225.02 L85.013,226.072 L92.905,232.327 z" fill="#2D2D2D"/>
      <path d="M91.487,234.154 L83.466,228.066 L82.654,229.136 L90.675,235.224 z" fill="#2D2D2D"/>
      <path d="M87.167,240.052 L78.899,234.305 L78.132,235.408 L86.401,241.154 z" fill="#2D2D2D"/>
      <path d="M85.101,243.067 L76.714,237.495 L75.971,238.613 L84.358,244.186 z" fill="#2D2D2D"/>
      <path d="M83.098,246.125 L74.596,240.73 L73.877,241.864 L82.379,247.259 z" fill="#2D2D2D"/>
      <path d="M81.16,249.225 L72.547,244.009 L71.852,245.157 L80.464,250.373 z" fill="#2D2D2D"/>
      <path d="M77.48,255.542 L68.656,250.691 L68.01,251.867 L76.834,256.718 z" fill="#2D2D2D"/>
      <path d="M75.741,258.757 L66.817,254.091 L66.195,255.281 L75.119,259.946 z" fill="#2D2D2D"/>
      <path d="M64.452,258.733 L73.472,263.21 L74.069,262.007 L65.049,257.53 z" fill="#2D2D2D"/>
      <path d="M72.465,265.292 L63.354,261.005 L62.782,262.219 L71.893,266.507 z" fill="#2D2D2D"/>
      <path d="M69.466,271.959 L60.183,268.057 L59.663,269.295 L68.946,273.197 z" fill="#2D2D2D"/>
      <path d="M68.072,275.338 L58.709,271.631 L58.215,272.88 L67.577,276.587 z" fill="#2D2D2D"/>
      <path d="M66.749,278.746 L57.311,275.236 L56.843,276.494 L66.281,280.004 z" fill="#2D2D2D"/>
      <path d="M65.497,282.18 L55.988,278.869 L55.546,280.137 L65.056,283.448 z" fill="#2D2D2D"/>
      <path d="M63.211,289.124 L53.572,286.214 L53.184,287.499 L62.823,290.41 z" fill="#2D2D2D"/>
      <path d="M62.178,292.631 L52.479,289.923 L52.118,291.216 L61.817,293.924 z" fill="#2D2D2D"/>
      <path d="M61.218,296.158 L51.465,293.654 L51.131,294.954 L60.885,297.458 z" fill="#2D2D2D"/>
      <path d="M60.333,299.704 L50.529,297.405 L50.223,298.712 L60.026,301.011 z" fill="#2D2D2D"/>
      <path d="M58.785,306.849 L48.894,304.962 L48.643,306.281 L58.534,308.168 z" fill="#2D2D2D"/>
      <path d="M58.124,310.445 L48.196,308.765 L47.972,310.089 L57.9,311.768 z" fill="#2D2D2D"/>
      <path d="M57.538,314.053 L47.577,312.582 L47.381,313.91 L57.342,315.381 z" fill="#2D2D2D"/>
      <path d="M57.028,317.672 L47.038,316.41 L46.87,317.742 L56.86,319.004 z" fill="#2D2D2D"/>
      <path d="M56.236,324.94 L46.202,324.097 L46.09,325.435 L56.124,326.278 z" fill="#2D2D2D"/>
      <path d="M55.955,328.584 L45.905,327.952 L45.821,329.292 L55.87,329.924 z" fill="#2D2D2D"/>
      <path d="M55.749,332.234 L45.689,331.812 L45.632,333.154 L55.693,333.575 z" fill="#2D2D2D"/>
      <path d="M55.62,335.887 L45.553,335.676 L45.525,337.018 L55.592,337.229 z" fill="#2D2D2D"/>
      <path d="M55.592,343.198 L45.525,343.409 L45.553,344.751 L55.62,344.54 z" fill="#2D2D2D"/>
      <path d="M55.693,346.852 L45.632,347.273 L45.689,348.615 L55.749,348.193 z" fill="#2D2D2D"/>
      <path d="M55.87,350.503 L45.821,351.135 L45.905,352.475 L55.955,351.843 z" fill="#2D2D2D"/>
      <path d="M56.124,354.149 L46.09,354.992 L46.202,356.33 L56.236,355.487 z" fill="#2D2D2D"/>
      <path d="M56.86,361.423 L46.87,362.685 L47.038,364.017 L57.028,362.755 z" fill="#2D2D2D"/>
      <path d="M57.342,365.046 L47.381,366.517 L47.577,367.845 L57.538,366.375 z" fill="#2D2D2D"/>
      <path d="M57.9,368.659 L47.972,370.338 L48.196,371.662 L58.124,369.983 z" fill="#2D2D2D"/>
      <path d="M58.534,372.259 L48.643,374.146 L48.894,375.465 L58.785,373.578 z" fill="#2D2D2D"/>
      <path d="M60.026,379.416 L50.223,381.715 L50.529,383.022 L60.333,380.723 z" fill="#2D2D2D"/>
      <path d="M60.884,382.969 L51.131,385.473 L51.465,386.773 L61.218,384.269 z" fill="#2D2D2D"/>
      <path d="M61.817,386.503 L52.118,389.211 L52.479,390.504 L62.178,387.797 z" fill="#2D2D2D"/>
      <path d="M62.823,390.018 L53.184,392.928 L53.572,394.213 L63.211,391.303 z" fill="#2D2D2D"/>
      <path d="M65.056,396.979 L55.546,400.29 L55.988,401.558 L65.497,398.247 z" fill="#2D2D2D"/>
      <path d="M66.281,400.423 L56.843,403.933 L57.311,405.191 L66.749,401.681 z" fill="#2D2D2D"/>
      <path d="M67.577,403.841 L58.215,407.547 L58.709,408.796 L68.072,405.089 z" fill="#2D2D2D"/>
      <path d="M68.946,407.23 L59.663,411.132 L60.183,412.37 L69.466,408.468 z" fill="#2D2D2D"/>
      <path d="M71.893,413.92 L62.782,418.208 L63.354,419.422 L72.465,415.135 z" fill="#2D2D2D"/>
      <path d="M64.452,421.695 L65.049,422.897 L74.069,418.42 L73.472,417.217 z" fill="#2D2D2D"/>
      <path d="M75.741,421.671 L75.119,420.481 L66.195,425.146 L66.817,426.336 z" fill="#2D2D2D"/>
      <path d="M77.48,424.885 L76.834,423.709 L68.01,428.56 L68.656,429.737 z" fill="#2D2D2D"/>
      <path d="M80.464,430.054 L71.851,435.27 L72.547,436.419 L81.16,431.202 z" fill="#2D2D2D"/>
      <path d="M82.379,433.168 L73.877,438.564 L74.596,439.697 L83.098,434.302 z" fill="#2D2D2D"/>
      <path d="M84.358,436.242 L75.971,441.814 L76.714,442.932 L85.101,437.36 z" fill="#2D2D2D"/>
      <path d="M86.401,439.273 L78.132,445.019 L78.899,446.122 L87.167,440.375 z" fill="#2D2D2D"/>
      <path d="M90.675,445.204 L82.655,451.291 L83.466,452.361 L91.487,446.273 z" fill="#2D2D2D"/>
      <path d="M92.905,448.101 L85.013,454.355 L85.847,455.407 L93.738,449.153 z" fill="#2D2D2D"/>
      <path d="M95.194,450.95 L87.435,457.369 L88.291,458.403 L96.05,451.985 z" fill="#2D2D2D"/>
      <path d="M97.543,453.751 L89.92,460.331 L90.797,461.347 L98.42,454.768 z" fill="#2D2D2D"/>
      <path d="M102.413,459.203 L95.073,466.096 L95.992,467.074 L103.332,460.182 z" fill="#2D2D2D"/>
      <path d="M104.933,461.851 L97.739,468.896 L98.678,469.855 L105.873,462.81 z" fill="#2D2D2D"/>
      <path d="M107.508,464.446 L100.463,471.64 L101.422,472.579 L108.467,465.385 z" fill="#2D2D2D"/>
      <path d="M110.137,466.986 L103.244,474.326 L104.223,475.245 L111.116,467.905 z" fill="#2D2D2D"/>
      <path d="M115.551,471.898 L108.971,479.521 L109.987,480.398 L116.567,472.776 z" fill="#2D2D2D"/>
      <path d="M118.334,474.268 L111.915,482.027 L112.95,482.883 L119.368,475.124 z" fill="#2D2D2D"/>
      <path d="M121.166,476.58 L114.911,484.471 L115.963,485.305 L122.218,477.414 z" fill="#2D2D2D"/>
      <path d="M124.045,478.831 L117.957,486.852 L119.027,487.664 L125.115,479.643 z" fill="#2D2D2D"/>
      <path d="M129.943,483.151 L124.196,491.42 L125.299,492.186 L131.045,483.917 z" fill="#2D2D2D"/>
      <path d="M132.958,485.217 L127.386,493.604 L128.504,494.347 L134.077,485.96 z" fill="#2D2D2D"/>
      <path d="M136.017,487.22 L130.621,495.722 L131.755,496.441 L137.15,487.94 z" fill="#2D2D2D"/>
      <path d="M133.9,497.771 L135.048,498.467 L140.264,489.854 L139.116,489.158 z" fill="#2D2D2D"/>
      <path d="M145.433,492.838 L140.582,501.662 L141.758,502.309 L146.609,493.485 z" fill="#2D2D2D"/>
      <path d="M148.648,494.578 L143.982,503.501 L145.172,504.123 L149.837,495.2 z" fill="#2D2D2D"/>
      <path d="M151.898,496.25 L147.421,505.269 L148.624,505.866 L153.101,496.846 z" fill="#2D2D2D"/>
      <path d="M155.183,497.853 L150.896,506.964 L152.111,507.536 L156.398,498.425 z" fill="#2D2D2D"/>
      <path d="M161.85,500.852 L157.948,510.135 L159.186,510.655 L163.088,501.373 z" fill="#2D2D2D"/>
      <path d="M165.229,502.247 L161.523,511.609 L162.771,512.103 L166.478,502.741 z" fill="#2D2D2D"/>
      <path d="M168.637,503.57 L165.127,513.007 L166.385,513.475 L169.895,504.038 z" fill="#2D2D2D"/>
      <path d="M172.071,504.821 L168.76,514.331 L170.028,514.772 L173.339,505.263 z" fill="#2D2D2D"/>
      <path d="M179.015,507.107 L176.105,516.746 L177.39,517.135 L180.301,507.495 z" fill="#2D2D2D"/>
      <path d="M182.522,508.14 L179.814,517.839 L181.107,518.2 L183.815,508.501 z" fill="#2D2D2D"/>
      <path d="M186.049,509.1 L183.545,518.853 L184.845,519.187 L187.349,509.434 z" fill="#2D2D2D"/>
      <path d="M187.296,519.789 L188.603,520.095 L190.903,510.292 L189.596,509.985 z" fill="#2D2D2D"/>
      <path d="M194.854,521.424 L196.172,521.676 L198.059,511.784 L196.74,511.533 z" fill="#2D2D2D"/>
      <path d="M198.656,522.122 L199.98,522.346 L201.659,512.418 L200.335,512.194 z" fill="#2D2D2D"/>
      <path d="M202.473,522.741 L203.801,522.937 L205.272,512.976 L203.944,512.78 z" fill="#2D2D2D"/>
      <path d="M206.301,523.28 L207.633,523.448 L208.895,513.458 L207.563,513.29 z" fill="#2D2D2D"/>
      <path d="M213.988,524.116 L215.326,524.228 L216.169,514.194 L214.831,514.082 z" fill="#2D2D2D"/>
      <path d="M217.843,524.413 L219.183,524.497 L219.815,514.448 L218.475,514.364 z" fill="#2D2D2D"/>
      <path d="M221.703,524.63 L223.045,524.686 L223.466,514.625 L222.125,514.569 z" fill="#2D2D2D"/>
      <path d="M225.567,524.765 L226.91,524.793 L227.121,514.726 L225.778,514.698 z" fill="#2D2D2D"/>
      <path d="M233.089,514.726 L233.3,524.793 L234.642,524.765 L234.431,514.698 z" fill="#2D2D2D"/>
      <path d="M236.743,514.625 L237.164,524.686 L238.506,524.63 L238.084,514.569 z" fill="#2D2D2D"/>
      <path d="M240.394,514.448 L241.026,524.497 L242.366,524.413 L241.734,514.364 z" fill="#2D2D2D"/>
      <path d="M244.041,514.194 L244.883,524.228 L246.221,524.116 L245.378,514.082 z" fill="#2D2D2D"/>
      <path d="M251.314,513.458 L252.576,523.448 L253.908,523.28 L252.646,513.29 z" fill="#2D2D2D"/>
      <path d="M254.937,512.976 L256.408,522.937 L257.737,522.741 L256.266,512.78 z" fill="#2D2D2D"/>
      <path d="M258.55,512.418 L260.229,522.347 L261.553,522.122 L259.874,512.194 z" fill="#2D2D2D"/>
      <path d="M262.15,511.784 L264.037,521.676 L265.356,521.424 L263.469,511.533 z" fill="#2D2D2D"/>
      <path d="M269.307,510.292 L271.606,520.095 L272.913,519.789 L270.614,509.986 z" fill="#2D2D2D"/>
      <path d="M272.86,509.434 L275.364,519.187 L276.664,518.853 L274.16,509.1 z" fill="#2D2D2D"/>
      <path d="M276.395,508.501 L279.102,518.2 L280.395,517.839 L277.688,508.14 z" fill="#2D2D2D"/>
      <path d="M279.909,507.495 L282.819,517.135 L284.104,516.747 L281.194,507.107 z" fill="#2D2D2D"/>
      <path d="M286.87,505.263 L290.182,514.772 L291.449,514.331 L288.138,504.821 z" fill="#2D2D2D"/>
      <path d="M290.314,504.037 L293.824,513.475 L295.082,513.008 L291.572,503.569 z" fill="#2D2D2D"/>
      <path d="M293.732,502.741 L297.438,512.103 L298.687,511.609 L294.98,502.246 z" fill="#2D2D2D"/>
      <path d="M297.121,501.373 L301.023,510.655 L302.261,510.135 L298.359,500.852 z" fill="#2D2D2D"/>
      <path d="M303.811,498.425 L308.099,507.536 L309.314,506.964 L305.026,497.853 z" fill="#2D2D2D"/>
      <path d="M307.108,496.846 L311.586,505.866 L312.788,505.269 L308.311,496.25 z" fill="#2D2D2D"/>
      <path d="M310.372,495.2 L315.037,504.123 L316.227,503.501 L311.562,494.578 z" fill="#2D2D2D"/>
      <path d="M313.6,493.485 L318.451,502.309 L319.628,501.662 L314.777,492.838 z" fill="#2D2D2D"/>
      <path d="M325.161,498.467 L326.31,497.771 L321.094,489.158 L319.945,489.854 z" fill="#2D2D2D"/>
      <path d="M323.059,487.939 L328.455,496.441 L329.588,495.722 L324.193,487.22 z" fill="#2D2D2D"/>
      <path d="M326.133,485.96 L331.705,494.347 L332.823,493.604 L327.251,485.217 z" fill="#2D2D2D"/>
      <path d="M329.164,483.917 L334.91,492.186 L336.013,491.42 L330.266,483.151 z" fill="#2D2D2D"/>
      <path d="M335.095,479.643 L341.183,487.664 L342.252,486.852 L336.164,478.831 z" fill="#2D2D2D"/>
      <path d="M337.992,477.414 L344.246,485.305 L345.298,484.471 L339.044,476.58 z" fill="#2D2D2D"/>
      <path d="M340.841,475.124 L347.26,482.883 L348.294,482.027 L341.876,474.268 z" fill="#2D2D2D"/>
      <path d="M343.642,472.776 L350.222,480.398 L351.238,479.521 L344.659,471.898 z" fill="#2D2D2D"/>
      <path d="M349.094,467.905 L355.987,475.245 L356.966,474.326 L350.073,466.986 z" fill="#2D2D2D"/>
      <path d="M351.742,465.385 L358.787,472.579 L359.746,471.64 L352.701,464.446 z" fill="#2D2D2D"/>
      <path d="M354.337,462.81 L361.531,469.855 L362.47,468.896 L355.276,461.851 z" fill="#2D2D2D"/>
      <path d="M356.877,460.181 L364.217,467.074 L365.136,466.096 L357.796,459.203 z" fill="#2D2D2D"/>
      <path d="M361.789,454.768 L369.412,461.347 L370.289,460.331 L362.667,453.751 z" fill="#2D2D2D"/>
      <path d="M364.16,451.985 L371.918,458.403 L372.774,457.369 L365.015,450.95 z" fill="#2D2D2D"/>
      <path d="M366.471,449.153 L374.362,455.407 L375.196,454.355 L367.305,448.101 z" fill="#2D2D2D"/>
      <path d="M368.722,446.273 L376.743,452.361 L377.555,451.291 L369.534,445.203 z" fill="#2D2D2D"/>
      <path d="M373.042,440.375 L381.311,446.122 L382.077,445.02 L373.808,439.273 z" fill="#2D2D2D"/>
      <path d="M375.108,437.36 L383.495,442.932 L384.238,441.814 L375.851,436.242 z" fill="#2D2D2D"/>
      <path d="M377.111,434.302 L385.613,439.697 L386.332,438.564 L377.831,433.168 z" fill="#2D2D2D"/>
      <path d="M379.049,431.202 L387.662,436.419 L388.358,435.27 L379.745,430.054 z" fill="#2D2D2D"/>
      <path d="M382.729,424.885 L391.553,429.737 L392.2,428.56 L383.376,423.709 z" fill="#2D2D2D"/>
      <path d="M384.469,421.671 L393.392,426.336 L394.014,425.146 L385.091,420.481 z" fill="#2D2D2D"/>
      <path d="M395.757,421.695 L386.737,417.217 L386.141,418.42 L395.16,422.897 z" fill="#2D2D2D"/>
      <path d="M387.744,415.135 L396.856,419.423 L397.427,418.208 L388.316,413.92 z" fill="#2D2D2D"/>
      <path d="M390.743,408.468 L400.026,412.37 L400.546,411.132 L391.264,407.231 z" fill="#2D2D2D"/>
      <path d="M392.137,405.089 L401.5,408.796 L401.994,407.547 L392.632,403.841 z" fill="#2D2D2D"/>
      <path d="M393.461,401.681 L402.898,405.191 L403.367,403.933 L393.929,400.423 z" fill="#2D2D2D"/>
      <path d="M394.712,398.247 L404.222,401.558 L404.663,400.29 L395.154,396.979 z" fill="#2D2D2D"/>
      <path d="M396.998,391.303 L406.637,394.213 L407.026,392.928 L397.386,390.018 z" fill="#2D2D2D"/>
      <path d="M398.031,387.796 L407.73,390.504 L408.091,389.211 L398.392,386.503 z" fill="#2D2D2D"/>
      <path d="M398.991,384.269 L408.744,386.774 L409.078,385.473 L399.325,382.969 z" fill="#2D2D2D"/>
      <path d="M399.877,380.723 L409.68,383.022 L409.987,381.715 L400.183,379.416 z" fill="#2D2D2D"/>
      <path d="M401.424,373.578 L411.315,375.465 L411.567,374.146 L401.676,372.259 z" fill="#2D2D2D"/>
      <path d="M402.085,369.983 L412.014,371.662 L412.238,370.338 L402.309,368.659 z" fill="#2D2D2D"/>
      <path d="M402.671,366.375 L412.632,367.845 L412.828,366.517 L402.867,365.046 z" fill="#2D2D2D"/>
      <path d="M403.181,362.755 L413.171,364.017 L413.339,362.685 L403.349,361.423 z" fill="#2D2D2D"/>
      <path d="M403.973,355.487 L414.007,356.33 L414.119,354.992 L404.085,354.15 z" fill="#2D2D2D"/>
      <path d="M404.255,351.843 L414.304,352.475 L414.389,351.135 L404.339,350.503 z" fill="#2D2D2D"/>
      <path d="M404.46,348.193 L414.521,348.615 L414.577,347.273 L404.516,346.852 z" fill="#2D2D2D"/>
      <path d="M404.589,344.54 L414.656,344.751 L414.684,343.409 L404.617,343.198 z" fill="#2D2D2D"/>
      <path d="M404.617,337.229 L414.684,337.018 L414.656,335.676 L404.589,335.887 z" fill="#2D2D2D"/>
      <path d="M404.516,333.575 L414.577,333.154 L414.521,331.812 L404.46,332.234 z" fill="#2D2D2D"/>
      <path d="M404.339,329.924 L414.389,329.292 L414.304,327.952 L404.255,328.584 z" fill="#2D2D2D"/>
      <path d="M404.085,326.278 L414.12,325.435 L414.007,324.097 L403.973,324.94 z" fill="#2D2D2D"/>
      <path d="M403.349,319.004 L413.339,317.742 L413.171,316.41 L403.181,317.672 z" fill="#2D2D2D"/>
      <path d="M402.867,315.381 L412.828,313.91 L412.632,312.582 L402.671,314.053 z" fill="#2D2D2D"/>
      <path d="M402.309,311.768 L412.238,310.089 L412.013,308.765 L402.085,310.445 z" fill="#2D2D2D"/>
      <path d="M401.676,308.168 L411.567,306.281 L411.315,304.963 L401.424,306.849 z" fill="#2D2D2D"/>
      <path d="M400.183,301.012 L409.987,298.712 L409.68,297.405 L399.877,299.705 z" fill="#2D2D2D"/>
      <path d="M399.325,297.458 L409.078,294.954 L408.744,293.654 L398.991,296.158 z" fill="#2D2D2D"/>
      <path d="M398.392,293.924 L408.091,291.216 L407.73,289.923 L398.031,292.631 z" fill="#2D2D2D"/>
      <path d="M397.386,290.41 L407.026,287.499 L406.638,286.214 L396.998,289.124 z" fill="#2D2D2D"/>
      <path d="M395.154,283.448 L404.663,280.137 L404.222,278.869 L394.712,282.18 z" fill="#2D2D2D"/>
      <path d="M393.929,280.004 L403.367,276.494 L402.899,275.236 L393.461,278.746 z" fill="#2D2D2D"/>
      <path d="M392.632,276.587 L401.994,272.88 L401.5,271.632 L392.137,275.338 z" fill="#2D2D2D"/>
      <path d="M391.264,273.197 L400.546,269.295 L400.026,268.057 L390.743,271.959 z" fill="#2D2D2D"/>
      <path d="M388.316,266.507 L397.427,262.22 L396.855,261.005 L387.744,265.292 z" fill="#2D2D2D"/>
      <path d="M395.757,258.733 L395.16,257.53 L386.141,262.007 L386.737,263.21 z" fill="#2D2D2D"/>
      <path d="M384.469,258.757 L385.091,259.946 L394.014,255.281 L393.392,254.091 z" fill="#2D2D2D"/>
      <path d="M382.729,255.542 L383.376,256.718 L392.2,251.867 L391.553,250.691 z" fill="#2D2D2D"/>
      <path d="M379.745,250.373 L388.358,245.157 L387.662,244.009 L379.049,249.225 z" fill="#2D2D2D"/>
      <path d="M377.83,247.259 L386.332,241.864 L385.613,240.73 L377.111,246.125 z" fill="#2D2D2D"/>
      <path d="M375.851,244.186 L384.239,238.613 L383.495,237.495 L375.108,243.067 z" fill="#2D2D2D"/>
      <path d="M373.808,241.154 L382.077,235.408 L381.311,234.305 L373.042,240.052 z" fill="#2D2D2D"/>
      <path d="M369.534,235.224 L377.555,229.136 L376.743,228.066 L368.722,234.154 z" fill="#2D2D2D"/>
      <path d="M367.305,232.327 L375.196,226.072 L374.362,225.02 L366.471,231.274 z" fill="#2D2D2D"/>
      <path d="M365.015,229.477 L372.774,223.058 L371.918,222.024 L364.16,228.442 z" fill="#2D2D2D"/>
      <path d="M362.667,226.676 L370.289,220.096 L369.412,219.08 L361.789,225.66 z" fill="#2D2D2D"/>
      <path d="M357.796,221.224 L365.136,214.331 L364.217,213.353 L356.877,220.246 z" fill="#2D2D2D"/>
      <path d="M355.276,218.576 L362.47,211.531 L361.531,210.572 L354.337,217.617 z" fill="#2D2D2D"/>
      <path d="M352.701,215.982 L359.746,208.787 L358.787,207.848 L351.742,215.042 z" fill="#2D2D2D"/>
      <path d="M350.072,213.441 L356.966,206.101 L355.987,205.182 L349.094,212.522 z" fill="#2D2D2D"/>
      <path d="M344.659,208.529 L351.238,200.906 L350.222,200.029 L343.642,207.651 z" fill="#2D2D2D"/>
      <path d="M341.876,206.159 L348.294,198.4 L347.26,197.544 L340.841,205.303 z" fill="#2D2D2D"/>
      <path d="M339.044,203.847 L345.298,195.956 L344.246,195.122 L337.992,203.013 z" fill="#2D2D2D"/>
      <path d="M336.164,201.596 L342.252,193.575 L341.183,192.763 L335.094,200.784 z" fill="#2D2D2D"/>
      <path d="M330.266,197.276 L336.013,189.008 L334.911,188.241 L329.164,196.51 z" fill="#2D2D2D"/>
      <path d="M327.251,195.21 L332.823,186.823 L331.705,186.08 L326.133,194.467 z" fill="#2D2D2D"/>
      <path d="M324.193,193.207 L329.588,184.705 L328.455,183.986 L323.059,192.488 z" fill="#2D2D2D"/>
      <path d="M325.161,181.96 L319.945,190.573 L321.094,191.269 L326.31,182.656 z" fill="#2D2D2D"/>
      <path d="M314.416,188.009 L319.628,178.529 L318.363,177.834 L313.152,187.314 z" fill="#2D2D2D"/>
      <path d="M310.962,186.14 L315.974,176.553 L314.696,175.884 L309.684,185.472 z" fill="#2D2D2D"/>
      <path d="M308.311,184.178 L312.788,175.158 L311.586,174.561 L307.108,183.581 z" fill="#2D2D2D"/>
      <path d="M305.026,182.574 L309.314,173.463 L308.099,172.891 L303.811,182.002 z" fill="#2D2D2D"/>
      <path d="M298.359,179.575 L302.261,170.292 L301.023,169.772 L297.122,179.055 z" fill="#2D2D2D"/>
      <path d="M294.98,178.181 L298.687,168.818 L297.438,168.324 L293.732,177.686 z" fill="#2D2D2D"/>
      <path d="M291.572,176.858 L295.082,167.42 L293.824,166.952 L290.314,176.39 z" fill="#2D2D2D"/>
      <path d="M288.138,175.606 L291.45,166.097 L290.182,165.655 L286.87,175.164 z" fill="#2D2D2D"/>
      <path d="M281.194,173.32 L284.104,163.681 L282.819,163.293 L279.909,172.932 z" fill="#2D2D2D"/>
      <path d="M277.688,172.287 L280.395,162.589 L279.102,162.228 L276.395,171.926 z" fill="#2D2D2D"/>
      <path d="M274.16,171.327 L276.665,161.574 L275.364,161.24 L272.86,170.993 z" fill="#2D2D2D"/>
      <path d="M272.913,160.638 L271.606,160.332 L269.307,170.135 L270.614,170.442 z" fill="#2D2D2D"/>
      <path d="M265.356,159.003 L264.037,158.752 L262.15,168.643 L263.469,168.894 z" fill="#2D2D2D"/>
      <path d="M258.55,168.009 L259.874,168.233 L261.553,158.305 L260.229,158.081 z" fill="#2D2D2D"/>
      <path d="M254.937,167.451 L256.266,167.647 L257.737,157.686 L256.408,157.49 z" fill="#2D2D2D"/>
      <path d="M251.314,166.969 L252.646,167.137 L253.908,157.147 L252.576,156.979 z" fill="#2D2D2D"/>
      <path d="M244.041,166.233 L245.378,166.345 L246.221,156.311 L244.883,156.199 z" fill="#2D2D2D"/>
      <path d="M240.394,165.979 L241.734,166.063 L242.366,156.014 L241.026,155.93 z" fill="#2D2D2D"/>
      <path d="M236.743,165.802 L238.084,165.858 L238.506,155.798 L237.164,155.741 z" fill="#2D2D2D"/>
      <path d="M233.089,165.701 L234.431,165.729 L234.642,155.662 L233.3,155.634 z" fill="#2D2D2D"/>
      <path d="M361.248,353.85 L355.952,353.85 L355.952,333.89 C354.017,335.7 351.736,337.038 349.11,337.905 L349.11,333.098 C350.492,332.646 351.994,331.789 353.615,330.526 C355.236,329.263 356.348,327.79 356.951,326.106 L361.248,326.106 z" fill="#2D2D2D"/>
      <path d="M369.239,346.744 L374.517,346.198 C374.667,347.391 375.113,348.337 375.855,349.034 C376.596,349.732 377.451,350.08 378.418,350.08 C379.524,350.08 380.46,349.631 381.226,348.733 C381.993,347.835 382.376,346.481 382.376,344.671 C382.376,342.974 381.996,341.702 381.236,340.855 C380.475,340.006 379.486,339.582 378.267,339.582 C376.747,339.582 375.384,340.255 374.178,341.599 L369.88,340.977 L372.594,326.596 L386.598,326.596 L386.598,331.553 L376.609,331.553 L375.779,336.246 C376.96,335.656 378.167,335.36 379.398,335.36 C381.748,335.36 383.739,336.215 385.373,337.923 C387.006,339.632 387.823,341.85 387.823,344.577 C387.823,346.851 387.163,348.881 385.844,350.664 C384.047,353.102 381.553,354.321 378.361,354.321 C375.811,354.321 373.731,353.636 372.123,352.266 C370.515,350.897 369.553,349.056 369.239,346.744" fill="#2D2D2D"/>
      <path d="M345.97,419.991 L345.97,424.911 L327.405,424.911 C327.606,423.051 328.209,421.289 329.215,419.624 C330.22,417.959 332.205,415.751 335.171,412.999 C337.558,410.775 339.022,409.267 339.562,408.476 C340.291,407.382 340.655,406.302 340.655,405.234 C340.655,404.053 340.338,403.145 339.703,402.51 C339.069,401.876 338.192,401.559 337.074,401.559 C335.968,401.559 335.089,401.892 334.436,402.558 C333.782,403.224 333.405,404.329 333.305,405.875 L328.027,405.347 C328.341,402.432 329.328,400.34 330.987,399.071 C332.645,397.802 334.718,397.167 337.206,397.167 C339.933,397.167 342.075,397.902 343.633,399.372 C345.191,400.842 345.97,402.671 345.97,404.857 C345.97,406.101 345.747,407.286 345.301,408.41 C344.855,409.534 344.148,410.712 343.181,411.944 C342.54,412.76 341.384,413.935 339.713,415.468 C338.041,417.001 336.983,418.019 336.537,418.521 C336.091,419.024 335.73,419.514 335.453,419.991 z" fill="#2D2D2D"/>
      <path d="M358.504,401.559 C357.863,401.559 357.291,401.763 356.789,402.171 C356.286,402.58 355.896,403.312 355.62,404.367 C355.256,405.737 355.074,408.042 355.074,411.284 C355.074,414.526 355.237,416.753 355.564,417.965 C355.89,419.178 356.301,419.985 356.798,420.387 C357.294,420.789 357.863,420.99 358.504,420.99 C359.145,420.99 359.716,420.786 360.219,420.378 C360.721,419.97 361.111,419.237 361.387,418.182 C361.752,416.825 361.934,414.526 361.934,411.284 C361.934,408.042 361.771,405.815 361.444,404.603 C361.117,403.39 360.706,402.58 360.21,402.171 C359.713,401.763 359.145,401.559 358.504,401.559 M358.504,397.167 C361.18,397.167 363.272,398.122 364.78,400.032 C366.577,402.294 367.475,406.044 367.475,411.284 C367.475,416.511 366.571,420.268 364.761,422.555 C363.266,424.439 361.18,425.382 358.504,425.382 C355.815,425.382 353.648,424.348 352.002,422.281 C350.355,420.215 349.533,416.53 349.533,411.227 C349.533,406.025 350.437,402.281 352.247,399.994 C353.742,398.11 355.828,397.167 358.504,397.167" fill="#2D2D2D"/>
      <path d="M301.388,469.667 L301.388,474.586 L282.823,474.586 C283.024,472.727 283.627,470.964 284.632,469.299 C285.637,467.634 287.622,465.426 290.588,462.674 C292.975,460.45 294.439,458.943 294.979,458.151 C295.708,457.058 296.073,455.978 296.073,454.909 C296.073,453.728 295.755,452.82 295.121,452.186 C294.486,451.552 293.609,451.234 292.492,451.234 C291.385,451.234 290.506,451.567 289.853,452.233 C289.199,452.899 288.822,454.005 288.722,455.55 L283.445,455.022 C283.759,452.107 284.745,450.016 286.404,448.746 C288.062,447.477 290.135,446.843 292.623,446.843 C295.35,446.843 297.492,447.578 299.05,449.048 C300.608,450.518 301.388,452.346 301.388,454.532 C301.388,455.776 301.164,456.961 300.719,458.085 C300.273,459.21 299.566,460.388 298.598,461.619 C297.957,462.436 296.801,463.611 295.13,465.143 C293.459,466.677 292.4,467.694 291.954,468.197 C291.508,468.699 291.147,469.189 290.871,469.667 z" fill="#2D2D2D"/>
      <path d="M305.044,467.48 L310.321,466.934 C310.472,468.128 310.918,469.073 311.659,469.77 C312.401,470.468 313.255,470.816 314.223,470.816 C315.328,470.816 316.265,470.367 317.031,469.469 C317.797,468.571 318.181,467.217 318.181,465.407 C318.181,463.711 317.8,462.439 317.04,461.591 C316.28,460.743 315.291,460.318 314.072,460.318 C312.551,460.318 311.189,460.991 309.982,462.335 L305.685,461.713 L308.399,447.333 L322.403,447.333 L322.403,452.29 L312.413,452.29 L311.584,456.982 C312.765,456.392 313.971,456.096 315.203,456.096 C317.552,456.096 319.544,456.951 321.177,458.66 C322.811,460.369 323.628,462.586 323.628,465.313 C323.628,467.587 322.968,469.617 321.649,471.401 C319.852,473.839 317.358,475.057 314.166,475.057 C311.615,475.057 309.536,474.373 307.928,473.003 C306.319,471.633 305.358,469.793 305.044,467.48" fill="#2D2D2D"/>
      <path d="M210.483,489.028 L215.609,488.406 C215.772,489.713 216.212,490.712 216.928,491.403 C217.645,492.094 218.511,492.44 219.53,492.44 C220.622,492.44 221.543,492.025 222.29,491.196 C223.038,490.366 223.412,489.248 223.412,487.841 C223.412,486.509 223.054,485.453 222.338,484.674 C221.621,483.896 220.748,483.506 219.718,483.506 C219.039,483.506 218.229,483.638 217.287,483.901 L217.871,479.586 C219.303,479.623 220.396,479.312 221.15,478.653 C221.904,477.993 222.281,477.116 222.281,476.024 C222.281,475.094 222.005,474.353 221.452,473.799 C220.899,473.247 220.164,472.97 219.247,472.97 C218.342,472.97 217.569,473.284 216.928,473.913 C216.288,474.541 215.898,475.458 215.76,476.664 L210.878,475.835 C211.218,474.164 211.729,472.829 212.414,471.83 C213.099,470.831 214.054,470.046 215.279,469.474 C216.504,468.902 217.877,468.616 219.397,468.616 C221.998,468.616 224.084,469.446 225.655,471.104 C226.949,472.461 227.596,473.994 227.596,475.703 C227.596,478.128 226.27,480.063 223.619,481.508 C225.202,481.847 226.468,482.608 227.417,483.789 C228.366,484.97 228.84,486.396 228.84,488.067 C228.84,490.492 227.954,492.559 226.183,494.268 C224.411,495.977 222.206,496.831 219.567,496.831 C217.067,496.831 214.993,496.112 213.348,494.673 C211.701,493.234 210.746,491.353 210.483,489.028" fill="#2D2D2D"/>
      <path d="M241.091,473.008 C240.45,473.008 239.878,473.212 239.376,473.62 C238.873,474.029 238.483,474.761 238.207,475.816 C237.843,477.186 237.661,479.492 237.661,482.733 C237.661,485.975 237.824,488.202 238.151,489.414 C238.477,490.627 238.888,491.435 239.385,491.837 C239.881,492.239 240.45,492.439 241.091,492.439 C241.732,492.439 242.303,492.235 242.806,491.827 C243.308,491.419 243.698,490.687 243.974,489.631 C244.339,488.274 244.521,485.975 244.521,482.733 C244.521,479.492 244.357,477.265 244.031,476.052 C243.704,474.839 243.293,474.029 242.797,473.62 C242.3,473.212 241.732,473.008 241.091,473.008 M241.091,468.616 C243.767,468.616 245.859,469.572 247.367,471.481 C249.164,473.743 250.062,477.493 250.062,482.733 C250.062,487.96 249.158,491.717 247.348,494.004 C245.853,495.888 243.767,496.831 241.091,496.831 C238.402,496.831 236.234,495.798 234.589,493.731 C232.942,491.664 232.12,487.979 232.12,482.677 C232.12,477.475 233.024,473.73 234.834,471.444 C236.328,469.559 238.414,468.616 241.091,468.616" fill="#2D2D2D"/>
      <path d="M140.642,467.499 L145.768,466.877 C145.931,468.184 146.371,469.183 147.087,469.874 C147.804,470.565 148.671,470.911 149.689,470.911 C150.781,470.911 151.702,470.496 152.449,469.667 C153.197,468.837 153.571,467.72 153.571,466.312 C153.571,464.98 153.213,463.925 152.497,463.145 C151.78,462.367 150.907,461.977 149.877,461.977 C149.198,461.977 148.388,462.109 147.446,462.373 L148.03,458.057 C149.462,458.095 150.555,457.783 151.309,457.124 C152.063,456.464 152.44,455.588 152.44,454.495 C152.44,453.565 152.164,452.824 151.611,452.27 C151.058,451.718 150.323,451.441 149.406,451.441 C148.501,451.441 147.728,451.755 147.087,452.384 C146.447,453.012 146.057,453.929 145.919,455.135 L141.037,454.306 C141.377,452.635 141.888,451.3 142.573,450.301 C143.258,449.302 144.213,448.517 145.438,447.945 C146.663,447.373 148.036,447.088 149.556,447.088 C152.157,447.088 154.243,447.917 155.814,449.575 C157.108,450.932 157.755,452.466 157.755,454.174 C157.755,456.599 156.429,458.534 153.778,459.979 C155.361,460.319 156.627,461.079 157.576,462.26 C158.525,463.441 158.999,464.867 158.999,466.538 C158.999,468.963 158.113,471.03 156.342,472.739 C154.57,474.448 152.365,475.302 149.726,475.302 C147.226,475.302 145.152,474.583 143.507,473.144 C141.86,471.706 140.905,469.824 140.642,467.499" fill="#2D2D2D"/>
      <path d="M162.373,467.725 L167.65,467.179 C167.801,468.373 168.247,469.318 168.988,470.016 C169.729,470.713 170.584,471.062 171.552,471.062 C172.657,471.062 173.593,470.613 174.36,469.714 C175.126,468.816 175.509,467.462 175.509,465.653 C175.509,463.956 175.129,462.684 174.369,461.836 C173.609,460.988 172.619,460.563 171.401,460.563 C169.88,460.563 168.517,461.236 167.311,462.58 L163.014,461.958 L165.728,447.578 L179.731,447.578 L179.731,452.535 L169.742,452.535 L168.913,457.228 C170.094,456.637 171.3,456.342 172.531,456.342 C174.881,456.342 176.873,457.196 178.506,458.905 C180.139,460.614 180.956,462.832 180.956,465.558 C180.956,467.833 180.297,469.862 178.977,471.646 C177.18,474.084 174.686,475.302 171.495,475.302 C168.944,475.302 166.864,474.618 165.256,473.248 C163.648,471.878 162.687,470.038 162.373,467.725" fill="#2D2D2D"/>
      <path d="M106.793,416.797 L106.793,407.354 L100.441,416.797 z M106.793,427.012 L106.793,421.452 L95.484,421.452 L95.484,416.815 L107.471,399.268 L111.919,399.268 L111.919,416.797 L115.349,416.797 L115.349,421.452 L111.919,421.452 L111.919,427.012 z" fill="#2D2D2D"/>
      <path d="M126.828,403.66 C126.187,403.66 125.615,403.864 125.112,404.273 C124.61,404.681 124.22,405.413 123.944,406.468 C123.579,407.838 123.397,410.144 123.397,413.386 C123.397,416.627 123.561,418.854 123.887,420.067 C124.214,421.28 124.625,422.087 125.122,422.489 C125.618,422.891 126.187,423.092 126.828,423.092 C127.468,423.092 128.04,422.888 128.543,422.479 C129.045,422.071 129.435,421.339 129.711,420.283 C130.076,418.926 130.258,416.627 130.258,413.386 C130.258,410.144 130.094,407.917 129.768,406.704 C129.441,405.492 129.03,404.681 128.533,404.273 C128.037,403.864 127.468,403.66 126.828,403.66 M126.828,399.269 C129.504,399.269 131.596,400.224 133.104,402.133 C134.901,404.395 135.799,408.146 135.799,413.386 C135.799,418.613 134.894,422.369 133.085,424.656 C131.59,426.541 129.504,427.483 126.828,427.483 C124.139,427.483 121.971,426.45 120.325,424.383 C118.679,422.316 117.856,418.631 117.856,413.329 C117.856,408.127 118.761,404.383 120.57,402.096 C122.065,400.211 124.151,399.269 126.828,399.269" fill="#2D2D2D"/>
      <path d="M82.526,346.152 L82.526,336.709 L76.175,346.152 z M82.526,356.367 L82.526,350.807 L71.218,350.807 L71.218,346.17 L83.205,328.624 L87.653,328.624 L87.653,346.152 L91.083,346.152 L91.083,350.807 L87.653,350.807 L87.653,356.367 z" fill="#2D2D2D"/>
      <path d="M93.684,349.261 L98.961,348.715 C99.112,349.909 99.558,350.854 100.299,351.552 C101.04,352.249 101.895,352.598 102.863,352.598 C103.968,352.598 104.904,352.149 105.671,351.25 C106.437,350.352 106.821,348.998 106.821,347.189 C106.821,345.492 106.44,344.22 105.68,343.372 C104.92,342.524 103.93,342.099 102.712,342.099 C101.191,342.099 99.828,342.772 98.622,344.116 L94.325,343.494 L97.039,329.114 L111.042,329.114 L111.042,334.071 L101.053,334.071 L100.224,338.764 C101.405,338.173 102.611,337.878 103.843,337.878 C106.192,337.878 108.184,338.732 109.817,340.441 C111.45,342.15 112.268,344.368 112.268,347.094 C112.268,349.369 111.608,351.398 110.288,353.182 C108.492,355.62 105.997,356.838 102.806,356.838 C100.255,356.838 98.176,356.154 96.568,354.784 C94.959,353.414 93.998,351.574 93.684,349.261" fill="#2D2D2D"/>
      <path d="M91.083,270.286 L96.36,269.74 C96.511,270.934 96.957,271.879 97.698,272.576 C98.44,273.274 99.294,273.622 100.262,273.622 C101.367,273.622 102.303,273.173 103.07,272.275 C103.836,271.377 104.22,270.023 104.22,268.213 C104.22,266.517 103.839,265.245 103.079,264.397 C102.319,263.548 101.33,263.124 100.111,263.124 C98.59,263.124 97.227,263.797 96.021,265.141 L91.724,264.519 L94.438,250.138 L108.441,250.138 L108.441,255.095 L98.452,255.095 L97.623,259.788 C98.804,259.198 100.01,258.902 101.242,258.902 C103.591,258.902 105.583,259.757 107.216,261.466 C108.849,263.175 109.667,265.392 109.667,268.119 C109.667,270.393 109.007,272.423 107.687,274.206 C105.891,276.645 103.397,277.863 100.205,277.863 C97.654,277.863 95.575,277.178 93.967,275.809 C92.358,274.439 91.397,272.598 91.083,270.286" fill="#2D2D2D"/>
      <path d="M121.427,254.04 C120.787,254.04 120.215,254.244 119.712,254.652 C119.21,255.061 118.82,255.793 118.544,256.848 C118.179,258.218 117.997,260.524 117.997,263.765 C117.997,267.007 118.16,269.234 118.487,270.446 C118.814,271.659 119.225,272.467 119.722,272.868 C120.218,273.271 120.787,273.472 121.427,273.472 C122.068,273.472 122.64,273.267 123.143,272.859 C123.645,272.451 124.035,271.719 124.311,270.663 C124.675,269.306 124.858,267.007 124.858,263.765 C124.858,260.524 124.694,258.297 124.368,257.084 C124.041,255.871 123.629,255.061 123.133,254.652 C122.637,254.244 122.068,254.04 121.427,254.04 M121.427,249.648 C124.104,249.648 126.196,250.604 127.703,252.513 C129.5,254.775 130.399,258.525 130.399,263.765 C130.399,268.992 129.494,272.749 127.685,275.036 C126.189,276.92 124.104,277.863 121.427,277.863 C118.738,277.863 116.571,276.83 114.925,274.763 C113.279,272.696 112.456,269.011 112.456,263.709 C112.456,258.507 113.361,254.762 115.17,252.476 C116.665,250.591 118.751,249.648 121.427,249.648" fill="#2D2D2D"/>
      <path d="M340.589,280.332 L335.293,280.332 L335.293,260.373 C333.358,262.182 331.077,263.52 328.451,264.387 L328.451,259.581 C329.833,259.129 331.335,258.271 332.956,257.009 C334.577,255.746 335.689,254.273 336.292,252.589 L340.589,252.589 z" fill="#2D2D2D"/>
      <path d="M357.458,256.981 C356.817,256.981 356.245,257.185 355.742,257.593 C355.24,258.001 354.85,258.733 354.574,259.789 C354.209,261.158 354.028,263.464 354.028,266.706 C354.028,269.948 354.191,272.175 354.518,273.387 C354.844,274.6 355.255,275.407 355.752,275.809 C356.248,276.211 356.817,276.412 357.458,276.412 C358.098,276.412 358.67,276.208 359.173,275.799 C359.675,275.391 360.065,274.659 360.341,273.604 C360.706,272.247 360.888,269.948 360.888,266.706 C360.888,263.464 360.724,261.237 360.398,260.024 C360.071,258.812 359.66,258.001 359.163,257.593 C358.667,257.185 358.098,256.981 357.458,256.981 M357.458,252.589 C360.134,252.589 362.226,253.544 363.734,255.454 C365.531,257.715 366.429,261.466 366.429,266.706 C366.429,271.933 365.524,275.69 363.715,277.976 C362.22,279.861 360.134,280.804 357.458,280.804 C354.769,280.804 352.601,279.77 350.955,277.703 C349.309,275.637 348.486,271.952 348.486,266.649 C348.486,261.447 349.391,257.703 351.2,255.416 C352.695,253.531 354.781,252.589 357.458,252.589" fill="#2D2D2D"/>
      <path d="M300.656,223.574 L305.934,223.028 C306.085,224.221 306.531,225.167 307.272,225.864 C308.013,226.561 308.868,226.91 309.835,226.91 C310.941,226.91 311.877,226.461 312.643,225.563 C313.41,224.665 313.793,223.31 313.793,221.501 C313.793,219.804 313.413,218.532 312.653,217.684 C311.892,216.836 310.903,216.412 309.685,216.412 C308.164,216.412 306.801,217.085 305.595,218.429 L301.298,217.807 L304.011,203.426 L318.015,203.426 L318.015,208.383 L308.026,208.383 L307.197,213.076 C308.378,212.486 309.584,212.19 310.815,212.19 C313.165,212.19 315.156,213.045 316.79,214.753 C318.423,216.462 319.24,218.68 319.24,221.407 C319.24,223.681 318.58,225.71 317.261,227.494 C315.464,229.932 312.97,231.151 309.778,231.151 C307.228,231.151 305.148,230.466 303.54,229.096 C301.932,227.727 300.97,225.886 300.656,223.574" fill="#2D2D2D"/>
      <path d="M300.591,249.148 C300.591,288.076 269.033,319.633 230.105,319.633 C191.176,319.633 159.619,288.076 159.619,249.148 C159.619,210.219 191.176,178.662 230.105,178.662 C269.033,178.662 300.591,210.219 300.591,249.148" fill="#CCCCCC"/>
      <path d="M230.105,179.501 C191.701,179.501 160.458,210.744 160.458,249.147 C160.458,287.551 191.701,318.794 230.105,318.794 C268.508,318.794 299.751,287.551 299.751,249.147 C299.751,210.744 268.508,179.501 230.105,179.501 M230.105,320.473 C190.776,320.473 158.78,288.476 158.78,249.147 C158.78,209.819 190.776,177.822 230.105,177.822 C269.433,177.822 301.43,209.819 301.43,249.147 C301.43,288.476 269.433,320.473 230.105,320.473" fill="#4D4D4D"/>
      <path d="M224.323,199.673 C224.323,200.422 224.495,201 224.84,201.407 C225.184,201.814 225.577,202.017 226.02,202.017 C226.446,202.017 226.801,201.851 227.085,201.517 C227.369,201.184 227.511,200.638 227.511,199.878 C227.511,199.097 227.358,198.525 227.052,198.161 C226.746,197.798 226.364,197.617 225.905,197.617 C225.462,197.617 225.088,197.79 224.782,198.137 C224.476,198.484 224.323,198.996 224.323,199.673 M229.543,194.65 L227.314,194.896 C227.26,194.437 227.118,194.098 226.888,193.88 C226.659,193.661 226.361,193.552 225.995,193.552 C225.509,193.552 225.098,193.771 224.762,194.208 C224.426,194.645 224.214,195.554 224.127,196.936 C224.7,196.259 225.413,195.92 226.265,195.92 C227.227,195.92 228.05,196.286 228.736,197.018 C229.422,197.75 229.765,198.696 229.765,199.854 C229.765,201.083 229.404,202.069 228.683,202.812 C227.962,203.555 227.036,203.926 225.905,203.926 C224.692,203.926 223.695,203.455 222.914,202.513 C222.133,201.57 221.742,200.026 221.742,197.879 C221.742,195.677 222.149,194.09 222.963,193.118 C223.777,192.145 224.834,191.659 226.134,191.659 C227.047,191.659 227.802,191.915 228.4,192.425 C228.998,192.936 229.379,193.678 229.543,194.65" fill="#4D4D4D"/>
      <path d="M234.968,193.568 C234.689,193.568 234.441,193.657 234.222,193.835 C234.004,194.012 233.834,194.331 233.714,194.789 C233.556,195.385 233.477,196.387 233.477,197.797 C233.477,199.206 233.548,200.175 233.69,200.702 C233.832,201.229 234.011,201.58 234.227,201.755 C234.442,201.93 234.689,202.017 234.968,202.017 C235.247,202.017 235.495,201.928 235.714,201.751 C235.932,201.573 236.102,201.255 236.222,200.796 C236.38,200.206 236.46,199.206 236.46,197.797 C236.46,196.387 236.388,195.419 236.247,194.892 C236.104,194.365 235.925,194.012 235.71,193.835 C235.494,193.657 235.247,193.568 234.968,193.568 M234.968,191.659 C236.132,191.659 237.041,192.074 237.697,192.905 C238.478,193.888 238.869,195.519 238.869,197.797 C238.869,200.069 238.475,201.703 237.689,202.697 C237.039,203.517 236.132,203.926 234.968,203.926 C233.799,203.926 232.856,203.477 232.141,202.578 C231.425,201.68 231.068,200.078 231.068,197.772 C231.068,195.51 231.461,193.883 232.247,192.888 C232.897,192.069 233.805,191.659 234.968,191.659" fill="#4D4D4D"/>
      <path d="M179.316,226.813 L181.61,226.575 C181.676,227.094 181.87,227.505 182.192,227.808 C182.514,228.111 182.886,228.263 183.306,228.263 C183.787,228.263 184.194,228.068 184.527,227.677 C184.861,227.287 185.027,226.698 185.027,225.911 C185.027,225.174 184.862,224.621 184.531,224.252 C184.201,223.883 183.771,223.699 183.241,223.699 C182.58,223.699 181.987,223.991 181.463,224.575 L179.594,224.305 L180.774,218.053 L186.863,218.053 L186.863,220.208 L182.52,220.208 L182.159,222.248 C182.673,221.992 183.197,221.863 183.732,221.863 C184.754,221.863 185.62,222.235 186.33,222.978 C187.04,223.721 187.395,224.685 187.395,225.87 C187.395,226.859 187.109,227.741 186.535,228.517 C185.754,229.577 184.669,230.107 183.282,230.107 C182.173,230.107 181.269,229.809 180.569,229.214 C179.87,228.618 179.452,227.818 179.316,226.813" fill="#4D4D4D"/>
      <path d="M192.509,219.749 C192.23,219.749 191.982,219.838 191.763,220.015 C191.544,220.193 191.375,220.511 191.255,220.97 C191.097,221.566 191.017,222.568 191.017,223.977 C191.017,225.387 191.088,226.355 191.23,226.882 C191.372,227.41 191.551,227.761 191.767,227.935 C191.983,228.11 192.23,228.198 192.509,228.198 C192.787,228.198 193.036,228.109 193.255,227.931 C193.473,227.754 193.642,227.435 193.763,226.977 C193.921,226.387 194,225.387 194,223.977 C194,222.568 193.929,221.6 193.787,221.072 C193.645,220.545 193.466,220.193 193.25,220.015 C193.035,219.838 192.787,219.749 192.509,219.749 M192.509,217.84 C193.672,217.84 194.582,218.255 195.238,219.085 C196.019,220.069 196.409,221.699 196.409,223.977 C196.409,226.25 196.016,227.884 195.229,228.878 C194.579,229.697 193.672,230.107 192.509,230.107 C191.34,230.107 190.397,229.658 189.682,228.759 C188.966,227.86 188.608,226.258 188.608,223.953 C188.608,221.691 189.002,220.063 189.788,219.069 C190.438,218.249 191.345,217.84 192.509,217.84" fill="#4D4D4D"/>
      <path d="M183.798,274.968 L183.798,270.863 L181.036,274.968 z M183.798,279.41 L183.798,276.993 L178.881,276.993 L178.881,274.977 L184.093,267.348 L186.027,267.348 L186.027,274.968 L187.518,274.968 L187.518,276.993 L186.027,276.993 L186.027,279.41 z" fill="#4D4D4D"/>
      <path d="M192.509,269.257 C192.23,269.257 191.982,269.346 191.763,269.523 C191.544,269.701 191.375,270.019 191.255,270.478 C191.097,271.074 191.017,272.076 191.017,273.485 C191.017,274.895 191.088,275.863 191.23,276.39 C191.372,276.918 191.551,277.269 191.767,277.443 C191.983,277.618 192.23,277.706 192.509,277.706 C192.787,277.706 193.036,277.617 193.255,277.439 C193.473,277.262 193.642,276.943 193.763,276.485 C193.921,275.895 194,274.895 194,273.485 C194,272.076 193.929,271.108 193.787,270.58 C193.645,270.053 193.466,269.701 193.25,269.523 C193.035,269.346 192.787,269.257 192.509,269.257 M192.509,267.348 C193.672,267.348 194.582,267.763 195.238,268.593 C196.019,269.577 196.409,271.207 196.409,273.485 C196.409,275.758 196.016,277.391 195.229,278.386 C194.579,279.205 193.672,279.615 192.509,279.615 C191.34,279.615 190.397,279.166 189.682,278.267 C188.966,277.368 188.608,275.766 188.608,273.461 C188.608,271.199 189.002,269.571 189.788,268.577 C190.438,267.757 191.345,267.348 192.509,267.348" fill="#4D4D4D"/>
      <path d="M221.66,303.242 L223.889,302.971 C223.96,303.54 224.151,303.974 224.463,304.274 C224.774,304.575 225.151,304.725 225.594,304.725 C226.069,304.725 226.469,304.545 226.794,304.184 C227.119,303.824 227.282,303.338 227.282,302.726 C227.282,302.147 227.126,301.688 226.815,301.349 C226.503,301.01 226.123,300.841 225.676,300.841 C225.381,300.841 225.028,300.898 224.618,301.013 L224.873,299.136 C225.495,299.153 225.971,299.018 226.298,298.731 C226.626,298.444 226.79,298.063 226.79,297.588 C226.79,297.184 226.67,296.861 226.429,296.621 C226.189,296.38 225.869,296.26 225.471,296.26 C225.077,296.26 224.741,296.397 224.463,296.67 C224.184,296.943 224.015,297.342 223.955,297.866 L221.832,297.506 C221.98,296.779 222.202,296.199 222.5,295.764 C222.798,295.33 223.213,294.989 223.746,294.74 C224.278,294.492 224.875,294.367 225.536,294.367 C226.667,294.367 227.574,294.728 228.257,295.449 C228.819,296.039 229.101,296.705 229.101,297.448 C229.101,298.503 228.524,299.344 227.372,299.972 C228.06,300.12 228.61,300.45 229.023,300.964 C229.435,301.477 229.642,302.097 229.642,302.824 C229.642,303.879 229.257,304.777 228.486,305.52 C227.716,306.263 226.757,306.634 225.61,306.634 C224.523,306.634 223.621,306.322 222.906,305.696 C222.19,305.071 221.775,304.253 221.66,303.242" fill="#4D4D4D"/>
      <path d="M234.968,296.277 C234.689,296.277 234.441,296.365 234.222,296.543 C234.004,296.721 233.834,297.039 233.714,297.497 C233.556,298.093 233.477,299.096 233.477,300.505 C233.477,301.914 233.548,302.883 233.69,303.41 C233.832,303.937 234.011,304.288 234.227,304.463 C234.442,304.638 234.689,304.725 234.968,304.725 C235.247,304.725 235.495,304.636 235.714,304.459 C235.932,304.281 236.102,303.963 236.222,303.504 C236.38,302.914 236.46,301.914 236.46,300.505 C236.46,299.096 236.388,298.127 236.247,297.6 C236.104,297.073 235.925,296.721 235.71,296.543 C235.494,296.365 235.247,296.277 234.968,296.277 M234.968,294.367 C236.132,294.367 237.041,294.782 237.697,295.613 C238.478,296.596 238.869,298.227 238.869,300.505 C238.869,302.778 238.475,304.411 237.689,305.405 C237.039,306.225 236.132,306.634 234.968,306.634 C233.799,306.634 232.856,306.185 232.141,305.286 C231.425,304.388 231.068,302.786 231.068,300.48 C231.068,298.219 231.461,296.591 232.247,295.597 C232.897,294.777 233.805,294.367 234.968,294.367" fill="#4D4D4D"/>
      <path d="M270.471,277.169 L270.471,279.308 L262.399,279.308 C262.487,278.499 262.749,277.733 263.186,277.009 C263.623,276.285 264.486,275.325 265.775,274.129 C266.813,273.162 267.45,272.506 267.685,272.162 C268.001,271.687 268.16,271.217 268.16,270.752 C268.16,270.239 268.022,269.844 267.746,269.568 C267.47,269.293 267.089,269.155 266.603,269.155 C266.122,269.155 265.74,269.299 265.456,269.589 C265.172,269.878 265.008,270.359 264.964,271.031 L262.669,270.802 C262.806,269.534 263.235,268.625 263.956,268.073 C264.677,267.521 265.578,267.245 266.66,267.245 C267.846,267.245 268.777,267.565 269.455,268.204 C270.132,268.843 270.471,269.638 270.471,270.589 C270.471,271.129 270.374,271.644 270.18,272.133 C269.986,272.622 269.678,273.134 269.258,273.67 C268.979,274.025 268.477,274.536 267.75,275.202 C267.023,275.869 266.563,276.311 266.369,276.53 C266.175,276.748 266.018,276.961 265.898,277.169 z" fill="#4D4D4D"/>
      <path d="M275.92,269.154 C275.641,269.154 275.393,269.243 275.174,269.421 C274.956,269.598 274.787,269.917 274.666,270.375 C274.508,270.971 274.429,271.973 274.429,273.383 C274.429,274.792 274.5,275.761 274.642,276.288 C274.784,276.815 274.963,277.166 275.179,277.341 C275.394,277.516 275.641,277.603 275.92,277.603 C276.199,277.603 276.447,277.514 276.666,277.337 C276.884,277.159 277.054,276.841 277.174,276.382 C277.332,275.792 277.412,274.792 277.412,273.383 C277.412,271.973 277.341,271.005 277.199,270.478 C277.056,269.951 276.877,269.598 276.662,269.421 C276.446,269.243 276.199,269.154 275.92,269.154 M275.92,267.245 C277.084,267.245 277.993,267.66 278.649,268.491 C279.43,269.474 279.821,271.105 279.821,273.383 C279.821,275.655 279.427,277.289 278.641,278.283 C277.991,279.103 277.084,279.512 275.92,279.512 C274.751,279.512 273.809,279.063 273.093,278.164 C272.377,277.266 272.02,275.664 272.02,273.358 C272.02,271.096 272.413,269.469 273.199,268.474 C273.849,267.655 274.757,267.245 275.92,267.245" fill="#4D4D4D"/>
      <path d="M269.041,230.008 L266.738,230.008 L266.738,221.331 C265.897,222.117 264.905,222.699 263.763,223.076 L263.763,220.986 C264.364,220.79 265.017,220.417 265.722,219.868 C266.427,219.319 266.91,218.678 267.172,217.946 L269.041,217.946 z" fill="#4D4D4D"/>
      <path d="M276.375,219.855 C276.096,219.855 275.848,219.944 275.629,220.122 C275.411,220.299 275.241,220.618 275.121,221.076 C274.963,221.672 274.883,222.674 274.883,224.084 C274.883,225.493 274.954,226.462 275.096,226.989 C275.238,227.516 275.417,227.867 275.633,228.042 C275.849,228.217 276.096,228.304 276.375,228.304 C276.654,228.304 276.902,228.215 277.121,228.038 C277.339,227.86 277.508,227.542 277.629,227.083 C277.787,226.493 277.866,225.493 277.866,224.084 C277.866,222.674 277.795,221.706 277.653,221.179 C277.511,220.652 277.332,220.299 277.116,220.122 C276.901,219.944 276.654,219.855 276.375,219.855 M276.375,217.946 C277.538,217.946 278.448,218.361 279.104,219.192 C279.885,220.175 280.275,221.806 280.275,224.084 C280.275,226.356 279.882,227.99 279.096,228.984 C278.445,229.804 277.538,230.213 276.375,230.213 C275.206,230.213 274.263,229.764 273.548,228.865 C272.832,227.967 272.474,226.365 272.474,224.059 C272.474,221.797 272.868,220.17 273.654,219.175 C274.304,218.356 275.211,217.946 276.375,217.946" fill="#4D4D4D"/>
      <path d="M228.594,188.741 L231.615,188.741 L231.615,178.662 L228.594,178.662 z" fill="#4D4D4D"/>
      <path d="M221.902,179.135 L222.956,189.16 L224.625,188.984 L223.571,178.96 z" fill="#4D4D4D"/>
      <path d="M214.629,180.376 L216.725,190.235 L218.366,189.887 L216.271,180.027 z" fill="#4D4D4D"/>
      <path d="M207.525,182.371 L210.64,191.957 L212.236,191.438 L209.121,181.852 z" fill="#4D4D4D"/>
      <path d="M200.669,185.097 L204.768,194.305 L206.302,193.622 L202.202,184.414 z" fill="#4D4D4D"/>
      <path d="M203.112,200.717 L195.56,187.637 L194.107,188.476 L201.659,201.556 z" fill="#4D4D4D"/>
      <path d="M195.277,199.784 L189.353,191.63 L187.995,192.616 L193.92,200.771 z" fill="#4D4D4D"/>
      <path d="M190.308,203.695 L183.564,196.205 L182.317,197.328 L189.061,204.818 z" fill="#4D4D4D"/>
      <path d="M185.775,208.104 L178.285,201.36 L177.162,202.607 L184.652,209.351 z" fill="#4D4D4D"/>
      <path d="M181.728,212.963 L173.574,207.038 L172.587,208.396 L180.742,214.32 z" fill="#4D4D4D"/>
      <path d="M178.546,217.636 L169.817,212.597 L168.307,215.213 L177.036,220.252 z" fill="#4D4D4D"/>
      <path d="M175.262,223.811 L166.054,219.712 L165.371,221.245 L174.579,225.345 z" fill="#4D4D4D"/>
      <path d="M172.914,229.683 L163.328,226.568 L162.809,228.164 L172.395,231.279 z" fill="#4D4D4D"/>
      <path d="M171.193,235.767 L161.334,233.672 L160.985,235.313 L170.844,237.409 z" fill="#4D4D4D"/>
      <path d="M170.117,241.999 L160.093,240.945 L159.917,242.614 L169.941,243.668 z" fill="#4D4D4D"/>
      <path d="M174.723,248.308 L159.619,248.308 L159.619,249.987 L174.723,249.987 z" fill="#4D4D4D"/>
      <path d="M169.941,254.627 L159.917,255.681 L160.093,257.35 L170.117,256.296 z" fill="#4D4D4D"/>
      <path d="M170.844,260.886 L160.985,262.982 L161.333,264.623 L171.193,262.528 z" fill="#4D4D4D"/>
      <path d="M172.395,267.016 L162.809,270.131 L163.328,271.727 L172.914,268.612 z" fill="#4D4D4D"/>
      <path d="M174.579,272.951 L165.371,277.05 L166.054,278.583 L175.262,274.484 z" fill="#4D4D4D"/>
      <path d="M177.036,278.043 L168.307,283.082 L169.817,285.699 L178.546,280.659 z" fill="#4D4D4D"/>
      <path d="M180.742,283.975 L172.587,289.899 L173.574,291.257 L181.728,285.333 z" fill="#4D4D4D"/>
      <path d="M184.652,288.944 L177.162,295.688 L178.285,296.935 L185.775,290.191 z" fill="#4D4D4D"/>
      <path d="M189.061,293.477 L182.317,300.967 L183.564,302.09 L190.308,294.6 z" fill="#4D4D4D"/>
      <path d="M193.92,297.524 L187.995,305.678 L189.353,306.665 L195.277,298.511 z" fill="#4D4D4D"/>
      <path d="M201.707,296.655 L194.155,309.735 L195.609,310.574 L203.161,297.494 z" fill="#4D4D4D"/>
      <path d="M200.669,313.198 L202.202,313.881 L206.302,304.673 L204.768,303.99 z" fill="#4D4D4D"/>
      <path d="M207.525,315.924 L209.121,316.443 L212.236,306.857 L210.64,306.338 z" fill="#4D4D4D"/>
      <path d="M214.629,317.919 L216.271,318.268 L218.366,308.409 L216.725,308.06 z" fill="#4D4D4D"/>
      <path d="M221.902,319.16 L223.571,319.335 L224.625,309.311 L222.956,309.136 z" fill="#4D4D4D"/>
      <path d="M228.594,319.633 L231.615,319.633 L231.615,309.554 L228.594,309.554 z" fill="#4D4D4D"/>
      <path d="M235.584,309.311 L236.638,319.335 L238.307,319.16 L237.253,309.136 z" fill="#4D4D4D"/>
      <path d="M241.843,308.409 L243.939,318.268 L245.58,317.919 L243.485,308.06 z" fill="#4D4D4D"/>
      <path d="M247.973,306.857 L251.088,316.443 L252.684,315.924 L249.569,306.338 z" fill="#4D4D4D"/>
      <path d="M253.908,304.673 L258.007,313.881 L259.54,313.198 L255.441,303.99 z" fill="#4D4D4D"/>
      <path d="M257.048,297.494 L264.6,310.574 L266.054,309.735 L258.502,296.655 z" fill="#4D4D4D"/>
      <path d="M264.932,298.511 L270.856,306.665 L272.214,305.679 L266.29,297.524 z" fill="#4D4D4D"/>
      <path d="M269.901,294.6 L276.645,302.09 L277.893,300.967 L271.148,293.477 z" fill="#4D4D4D"/>
      <path d="M274.434,290.191 L281.924,296.935 L283.047,295.688 L275.557,288.944 z" fill="#4D4D4D"/>
      <path d="M278.481,285.333 L286.636,291.257 L287.622,289.899 L279.468,283.975 z" fill="#4D4D4D"/>
      <path d="M281.663,280.659 L290.392,285.698 L291.902,283.082 L283.173,278.043 z" fill="#4D4D4D"/>
      <path d="M284.948,274.484 L294.155,278.583 L294.838,277.05 L285.63,272.951 z" fill="#4D4D4D"/>
      <path d="M287.296,268.612 L296.882,271.727 L297.4,270.131 L287.814,267.016 z" fill="#4D4D4D"/>
      <path d="M289.017,262.528 L298.876,264.623 L299.225,262.982 L289.366,260.886 z" fill="#4D4D4D"/>
      <path d="M290.093,256.296 L300.117,257.35 L300.292,255.681 L290.268,254.627 z" fill="#4D4D4D"/>
      <path d="M285.487,249.987 L300.591,249.987 L300.591,248.308 L285.487,248.308 z" fill="#4D4D4D"/>
      <path d="M290.268,243.668 L300.292,242.614 L300.117,240.945 L290.093,241.999 z" fill="#4D4D4D"/>
      <path d="M289.366,237.409 L299.225,235.313 L298.876,233.672 L289.017,235.767 z" fill="#4D4D4D"/>
      <path d="M287.814,231.279 L297.4,228.164 L296.881,226.568 L287.295,229.683 z" fill="#4D4D4D"/>
      <path d="M285.63,225.345 L294.838,221.245 L294.155,219.712 L284.948,223.811 z" fill="#4D4D4D"/>
      <path d="M283.173,220.252 L291.902,215.213 L290.392,212.596 L281.663,217.636 z" fill="#4D4D4D"/>
      <path d="M279.468,214.32 L287.622,208.396 L286.636,207.038 L278.481,212.963 z" fill="#4D4D4D"/>
      <path d="M275.557,209.351 L283.047,202.607 L281.924,201.36 L274.434,208.104 z" fill="#4D4D4D"/>
      <path d="M271.148,204.818 L277.893,197.328 L276.645,196.205 L269.901,203.695 z" fill="#4D4D4D"/>
      <path d="M266.29,200.771 L272.214,192.616 L270.856,191.63 L264.932,199.784 z" fill="#4D4D4D"/>
      <path d="M258.55,201.556 L266.102,188.476 L264.649,187.637 L257.097,200.717 z" fill="#4D4D4D"/>
      <path d="M259.54,185.097 L258.007,184.414 L253.908,193.622 L255.441,194.305 z" fill="#4D4D4D"/>
      <path d="M247.973,191.438 L249.569,191.957 L252.684,182.371 L251.088,181.852 z" fill="#4D4D4D"/>
      <path d="M241.843,189.887 L243.485,190.235 L245.58,180.376 L243.939,180.027 z" fill="#4D4D4D"/>
      <path d="M235.584,188.984 L237.253,189.159 L238.307,179.135 L236.638,178.96 z" fill="#4D4D4D"/>
      <path d="M300.233,174.734 L299.305,174.344 L200.925,395.275 L211.168,399.582 z" fill="#2D2D2D"/>
      <path d="M241.013,249.148 C241.013,255.172 236.129,260.056 230.105,260.056 C224.08,260.056 219.196,255.172 219.196,249.148 C219.196,243.123 224.08,238.239 230.105,238.239 C236.129,238.239 241.013,243.123 241.013,249.148" fill="#2D2D2D"/>
      <path d="M238.631,267.243 L233.843,268.799 L208.99,186.879 L210.586,186.36 z" fill="#2D2D2D"/>
      <path d="M237.657,249.148 C237.657,253.318 234.276,256.7 230.105,256.7 C225.934,256.7 222.552,253.318 222.552,249.148 C222.552,244.977 225.934,241.595 230.105,241.595 C234.276,241.595 237.657,244.977 237.657,249.148" fill="#FBB03B"/>
      <path d="M230.105,242.267 C226.311,242.267 223.224,245.353 223.224,249.147 C223.224,252.942 226.311,256.028 230.105,256.028 C233.899,256.028 236.985,252.942 236.985,249.147 C236.985,245.353 233.899,242.267 230.105,242.267 M230.105,257.371 C225.57,257.371 221.881,253.682 221.881,249.147 C221.881,244.613 225.57,240.924 230.105,240.924 C234.639,240.924 238.328,244.613 238.328,249.147 C238.328,253.682 234.639,257.371 230.105,257.371" fill="#3E3531"/>
      <path d="M234.636,249.148 C234.636,251.65 232.607,253.679 230.105,253.679 C227.602,253.679 225.573,251.65 225.573,249.148 C225.573,246.645 227.602,244.616 230.105,244.616 C232.607,244.616 234.636,246.645 234.636,249.148" fill="#BC842C"/>
      <path d="M230.105,245.288 C227.976,245.288 226.245,247.019 226.245,249.147 C226.245,251.276 227.976,253.007 230.105,253.007 C232.233,253.007 233.965,251.276 233.965,249.147 C233.965,247.019 232.233,245.288 230.105,245.288 M230.105,254.35 C227.236,254.35 224.902,252.016 224.902,249.147 C224.902,246.279 227.236,243.945 230.105,243.945 C232.973,243.945 235.307,246.279 235.307,249.147 C235.307,252.016 232.973,254.35 230.105,254.35" fill="#534741"/>
      <path d="M232.622,249.148 C232.622,250.538 231.495,251.665 230.105,251.665 C228.714,251.665 227.587,250.538 227.587,249.148 C227.587,247.757 228.714,246.63 230.105,246.63 C231.495,246.63 232.622,247.757 232.622,249.148" fill="#3E3531"/>
      <path d="M241.013,340.214 C241.013,346.238 236.129,351.122 230.105,351.122 C224.08,351.122 219.196,346.238 219.196,340.214 C219.196,334.189 224.08,329.305 230.105,329.305 C236.129,329.305 241.013,334.189 241.013,340.214" fill="#2D2D2D"/>
      <path d="M237.657,340.214 C237.657,344.384 234.276,347.766 230.105,347.766 C225.934,347.766 222.552,344.384 222.552,340.214 C222.552,336.043 225.934,332.661 230.105,332.661 C234.276,332.661 237.657,336.043 237.657,340.214" fill="#FBB03B"/>
      <path d="M230.105,333.333 C226.311,333.333 223.224,336.419 223.224,340.213 C223.224,344.008 226.311,347.094 230.105,347.094 C233.899,347.094 236.985,344.008 236.985,340.213 C236.985,336.419 233.899,333.333 230.105,333.333 M230.105,348.437 C225.57,348.437 221.881,344.748 221.881,340.213 C221.881,335.679 225.57,331.99 230.105,331.99 C234.639,331.99 238.328,335.679 238.328,340.213 C238.328,344.748 234.639,348.437 230.105,348.437" fill="#3E3531"/>
      <path d="M234.636,340.214 C234.636,342.716 232.607,344.745 230.105,344.745 C227.602,344.745 225.573,342.716 225.573,340.214 C225.573,337.711 227.602,335.682 230.105,335.682 C232.607,335.682 234.636,337.711 234.636,340.214" fill="#BC842C"/>
      <path d="M230.105,336.354 C227.976,336.354 226.245,338.085 226.245,340.214 C226.245,342.342 227.976,344.074 230.105,344.074 C232.233,344.074 233.965,342.342 233.965,340.214 C233.965,338.085 232.233,336.354 230.105,336.354 M230.105,345.416 C227.236,345.416 224.902,343.082 224.902,340.214 C224.902,337.345 227.236,335.011 230.105,335.011 C232.973,335.011 235.307,337.345 235.307,340.214 C235.307,343.082 232.973,345.416 230.105,345.416" fill="#534741"/>
      <path d="M232.622,340.214 C232.622,341.604 231.495,342.731 230.105,342.731 C228.714,342.731 227.587,341.604 227.587,340.214 C227.587,338.823 228.714,337.696 230.105,337.696 C231.495,337.696 232.622,338.823 232.622,340.214" fill="#3E3531"/>
    </g>
  </g>
</svg>
