<?xml version="1.0" encoding="UTF-8"?>
<svg version="1.1" xmlns="http://www.w3.org/2000/svg" width="518" height="517">
<path d="M0 0 C0.11681626 26.32969148 0.20497998 52.6593441 0.25906086 78.98924255 C0.28483931 91.21475895 0.31998327 103.44011431 0.37719727 115.66552734 C0.42704287 126.32155337 0.45929362 136.97746277 0.47044247 147.63360214 C0.47695919 153.27567738 0.49226838 158.91741894 0.52865028 164.55938721 C0.56262772 169.87159741 0.57304926 175.18333698 0.56553841 180.49564552 C0.56691215 182.44350557 0.57683406 184.3913816 0.59602737 186.33914757 C0.62099317 189.00377198 0.61489287 191.66663155 0.60127258 194.33129883 C0.62311889 195.48113849 0.62311889 195.48113849 0.64540654 196.65420723 C0.56573348 202.44092971 -1.2603199 206.56855416 -5 211 C-10.66653183 215.40048196 -15.96481953 216.1238572 -22.94351196 216.14044189 C-23.64224501 216.14341302 -24.34097806 216.14638414 -25.06088483 216.1494453 C-27.40209293 216.15811629 -29.74324978 216.1596392 -32.08447266 216.16113281 C-33.76339832 216.16576222 -35.44232294 216.17078705 -37.12124634 216.17617798 C-41.68351849 216.1892946 -46.24577592 216.19574583 -50.80806398 216.20018864 C-53.66052097 216.20312136 -56.51297395 216.20722661 -59.36542892 216.21169281 C-68.29604881 216.22536758 -77.22665952 216.23503358 -86.15728915 216.2388947 C-96.45475919 216.24337153 -106.75209624 216.26090207 -117.04952586 216.2898953 C-125.01572935 216.31154327 -132.98189552 216.32160069 -140.9481281 216.32293582 C-145.70255801 216.32398188 -150.4568629 216.32984691 -155.21126175 216.34775543 C-159.68792349 216.36428939 -164.16436695 216.36636587 -168.64104843 216.35761642 C-170.27844072 216.35684882 -171.915845 216.3611521 -173.5532074 216.37107468 C-194.01536587 216.48774094 -194.01536587 216.48774094 -199.92632484 211.31389236 C-204.14579695 206.78549004 -206.24319522 202.1704624 -206.26742554 195.93486023 C-206.27595551 194.93826385 -206.28448547 193.94166748 -206.29327393 192.91487122 C-206.29236755 191.83267807 -206.29146118 190.75048492 -206.29052734 189.63549805 C-206.29724457 188.48694336 -206.30396179 187.33838867 -206.31088257 186.1550293 C-206.32988391 182.35721513 -206.33378794 178.5595775 -206.3359375 174.76171875 C-206.3423641 172.12001981 -206.34909236 169.47832158 -206.35610962 166.83662415 C-206.36889061 161.29772798 -206.37187557 155.75887962 -206.37060547 150.2199707 C-206.36940487 143.83116953 -206.39049339 137.44270663 -206.4220928 131.05399102 C-206.45146813 124.89395704 -206.45857962 118.7340845 -206.45738602 112.57398415 C-206.4597441 109.95975171 -206.46857922 107.34551669 -206.48405075 104.73132896 C-206.5036818 101.07149708 -206.4978828 97.41253187 -206.48583984 93.75268555 C-206.49707886 92.67656509 -206.50831787 91.60044464 -206.51989746 90.49171448 C-206.45798994 83.07477759 -205.14092205 77.77845788 -200.35690308 72.02339172 C-196.17332563 68.60875928 -192.14980577 66.4648846 -187.0703125 64.66796875 C-186.29769073 64.38116745 -185.52506897 64.09436615 -184.72903442 63.7988739 C-182.15819787 62.85003477 -179.5797501 61.92430527 -177 61 C-175.15828541 60.32960665 -173.31682048 59.65852709 -171.47558594 58.98681641 C-165.28419379 56.73727235 -159.07992044 54.52439401 -152.875 52.3125 C-150.56771199 51.48792903 -148.26050346 50.66313567 -145.95336914 49.83813477 C-139.87943278 47.6668479 -133.80442649 45.49857023 -127.72918701 43.33093262 C-121.50760571 41.11047399 -115.28705516 38.88713161 -109.06640625 36.6640625 C-100.84025906 33.72463562 -92.61385284 30.78593732 -84.38671875 27.84927368 C-82.21772975 27.07504304 -80.0487841 26.30069092 -77.87988281 25.5262146 C-72.19120566 23.49505554 -66.50169743 21.46626507 -60.81103516 19.44067383 C-50.36734531 15.7207847 -39.92750161 11.99531802 -29.53125 8.14453125 C-27.26313935 7.30819043 -24.9948601 6.47230821 -22.7265625 5.63647461 C-21.19798061 5.07079874 -19.67069979 4.50159838 -18.14453125 3.92944336 C-15.86031252 3.07451315 -13.57145284 2.23327505 -11.28125 1.39453125 C-10.60227661 1.13638138 -9.92330322 0.87823151 -9.22375488 0.61225891 C-5.67229433 -0.67327513 -3.5898279 -1.11642865 0 0 Z " fill="#FFFFFF" transform="translate(208,299)"/>
<path d="M0 0 C1.59020561 3.18041121 1.11199365 6.60824932 1.08229065 10.09902954 C1.07906152 10.94603373 1.07583239 11.79303792 1.07250541 12.6657089 C1.06038632 15.52018533 1.04102268 18.37456761 1.02172852 21.22900391 C1.01159038 23.26867974 1.00189621 25.30835781 0.99261475 27.34803772 C0.96608709 32.89942598 0.93331717 38.45076223 0.89946485 44.00211 C0.86516791 49.79837509 0.8365586 55.5946681 0.80735779 61.39096069 C0.75115964 72.37340993 0.6898125 83.35582419 0.62663645 94.33823526 C0.55497738 106.83862788 0.48902647 119.33904854 0.42356598 131.83947492 C0.28874952 157.55968634 0.14672909 183.27985398 0 209 C-16.69863601 217.349318 -37.33035738 210 -56 210 C-56 168.75 -56 127.5 -56 85 C-87.20748952 96.09716887 -87.20748952 96.09716887 -118.30618286 107.48016357 C-123.04144103 109.24488052 -127.78069795 110.99881728 -132.51953125 112.75390625 C-133.4794548 113.10956665 -134.43937836 113.46522705 -135.4283905 113.83166504 C-145.46096772 117.54609297 -155.50848009 121.21905507 -165.5625 124.875 C-166.4467868 125.19664124 -167.33107361 125.51828247 -168.24215698 125.84967041 C-179.32462218 129.87808227 -190.41933088 133.8714829 -201.5234375 137.83984375 C-202.67090958 138.24996201 -203.81838165 138.66008026 -205.00062561 139.08262634 C-214.8755258 142.61173414 -214.8755258 142.61173414 -218.88339233 144.04354858 C-232.88497258 149.04853272 -246.84178223 154.13868634 -260.72094727 159.47363281 C-268.06531688 162.29046623 -275.44554326 164.97821261 -282.875 167.5625 C-283.8036084 167.88565186 -284.7322168 168.20880371 -285.68896484 168.54174805 C-290.42682671 170.17130013 -295.17544193 171.64196808 -300 173 C-300.09967465 167.22002052 -300.17184583 161.44055312 -300.21972656 155.65991211 C-300.23970918 153.69790926 -300.26690484 151.73596495 -300.30175781 149.77416992 C-300.74599527 124.1063907 -300.74599527 124.1063907 -291.75 114.625 C-290.69039062 113.46871094 -290.69039062 113.46871094 -289.609375 112.2890625 C-283.59984685 107.01723092 -276.94520777 103.94450079 -269.48046875 101.2578125 C-268.5824202 100.92635223 -267.68437164 100.59489197 -266.7591095 100.25338745 C-263.90493008 99.20212813 -261.04640669 98.16332506 -258.1875 97.125 C-256.31284657 96.437027 -254.43849506 95.74823073 -252.56445312 95.05859375 C-248.84853484 93.69268744 -245.13083074 92.3318348 -241.41137695 90.97558594 C-236.28826699 89.10706682 -231.17069361 87.2238061 -226.0546875 85.3359375 C-220.44477403 83.26673329 -214.83236494 81.20471283 -209.21484375 79.15625 C-192.23243424 72.96243378 -192.23243424 72.96243378 -175.3639679 66.46617126 C-170.65519997 64.61509552 -165.91619779 62.889141 -161.13671875 61.23046875 C-152.74193898 58.29050621 -144.41097911 55.19436093 -136.08917236 52.05465698 C-131.70665833 50.40126827 -127.32201325 48.75354699 -122.9375 47.10546875 C-122.02932526 46.76397293 -121.12115051 46.42247711 -120.18545532 46.07063293 C-114.08712724 43.77918648 -107.98334295 41.50288695 -101.875 39.23828125 C-101.03753235 38.92777832 -100.2000647 38.61727539 -99.33721924 38.29736328 C-98.49407166 37.98476563 -97.65092407 37.67216797 -96.78222656 37.35009766 C-77.77145551 30.3014998 -58.79264858 23.16948923 -39.83092499 15.9901619 C-37.89010389 15.25571562 -35.94892061 14.52223466 -34.00762939 13.78903198 C-30.3554322 12.40943346 -26.70496418 11.02529755 -23.0546875 9.640625 C-21.96899475 9.23084915 -20.883302 8.8210733 -19.76470947 8.39888 C-13.06319399 5.85074379 -6.41736401 3.208682 0 0 Z " fill="#FFFFFF" transform="translate(419,0)"/>
<path d="M0 0 C1.3111377 0.00491455 2.62227539 0.0098291 3.97314453 0.01489258 C23.85514455 0.25412434 42.42250292 4.31268768 60.25 13.3125 C61.42175781 13.88742188 62.59351563 14.46234375 63.80078125 15.0546875 C76.85122616 21.61356247 87.62316058 30.30965649 98.25 40.3125 C99.15105469 41.13427734 99.15105469 41.13427734 100.0703125 41.97265625 C125.56470119 66.10339159 139.07128356 102.33859473 140.53125 136.82421875 C141.53594903 176.18070494 127.18973242 210.92332001 100.25 239.3125 C93.14954337 246.53872961 85.82004693 253.84225728 77.25 259.3125 C76.59 259.3125 75.93 259.3125 75.25 259.3125 C74.92 259.9725 74.59 260.6325 74.25 261.3125 C44.41622033 280.96561302 6.50630455 286.80550554 -28.26904297 279.85595703 C-48.57552389 275.40779461 -65.82353437 267.20349378 -82.75 255.3125 C-83.77738281 254.65765625 -84.80476563 254.0028125 -85.86328125 253.328125 C-88.87233404 251.22708138 -91.21357021 248.9595529 -93.75 246.3125 C-94.72777984 245.3734309 -95.70975854 244.43871936 -96.6953125 243.5078125 C-125.46911218 215.91544763 -138.89241826 180.08902955 -140.125 140.6875 C-139.55589939 107.24446981 -127.65142091 76.14798893 -106.47265625 50.48046875 C-104.61607541 48.24530016 -104.61607541 48.24530016 -102.9375 45.25 C-99.99717169 41.30155913 -96.3864237 38.57456231 -92.53515625 35.53515625 C-90.23692123 33.7010809 -88.0870913 31.81352343 -85.9375 29.8125 C-72.48204876 18.03898016 -55.40976765 10.06596006 -38.4375 4.875 C-37.6748584 4.64014893 -36.9122168 4.40529785 -36.12646484 4.16333008 C-24.28404485 0.77134955 -12.26567182 -0.05486395 0 0 Z M-66.75 54.3125 C-67.40355469 54.82554687 -68.05710937 55.33859375 -68.73046875 55.8671875 C-73.26567489 59.57143975 -77.0137611 63.81935063 -80.75 68.3125 C-81.389375 69.05242187 -82.02875 69.79234375 -82.6875 70.5546875 C-100.57588541 91.86702168 -110.75040574 120.82035025 -108.5625 148.7019043 C-105.45717059 178.217237 -93.53423264 205.61400595 -70.75 225.3125 C-46.73556231 244.749853 -17.87402959 252.40174148 12.67626953 249.60595703 C40.61217609 246.42070189 65.95758807 232.60290006 84.25 211.3125 C100.94328101 190.24662696 108.89433957 164.0704903 108.25 137.3125 C107.59 137.3125 106.93 137.3125 106.25 137.3125 C106.58 136.6525 106.91 135.9925 107.25 135.3125 C108.2856464 123.50613106 104.25187678 111.49180459 100.25 100.5 C100.0132959 99.83669678 99.7765918 99.17339355 99.53271484 98.48999023 C98.01887963 94.52887361 96.21336784 92.25734679 93.25 89.3125 C92.90258576 87.64871148 92.57032908 85.98171484 92.25 84.3125 C76.52481302 59.49618929 52.51386015 40.87015018 23.93652344 33.73486328 C-7.90966701 26.60582918 -41.27553493 33.84729949 -66.75 54.3125 Z " fill="#FFFFFF" transform="translate(377.75,231.6875)"/>
<path d="M0 0 C0 22.77 0 45.54 0 69 C-4.95 71.31 -9.9 73.62 -15 76 C-23.44847935 80.17124742 -31.192176 84.51786971 -38.6328125 90.3359375 C-41.01923265 92.01351998 -43.25757505 93.03380758 -46 94 C-46 94.66 -46 95.32 -46 96 C-47.47144268 97.28788243 -49.0045715 98.50570327 -50.5625 99.6875 C-56.39162376 104.24870701 -61.58583607 108.78392838 -65.75 114.9375 C-66.86375 116.4534375 -66.86375 116.4534375 -68 118 C-68.99 118 -69.98 118 -71 118 C-71 106.12 -71 94.24 -71 82 C-76.28 83.98 -81.56 85.96 -87 88 C-90.06488679 89.11179626 -93.12970502 90.21756253 -96.203125 91.3046875 C-97.83627549 91.885463 -99.46941294 92.46627515 -101.10253906 93.04711914 C-101.93950317 93.34425812 -102.77646729 93.64139709 -103.63879395 93.94754028 C-119.53109084 99.59223659 -135.4012206 105.29678859 -151.25 111.0625 C-152.16119598 111.39393005 -153.07239197 111.72536011 -154.01119995 112.0668335 C-167.92947203 117.13186212 -181.826856 122.25237602 -195.71853638 127.38980103 C-205.71437363 131.08430412 -215.72790889 134.70500381 -225.81445312 138.14624023 C-231.01468536 139.92932957 -236.17646624 141.79876378 -241.3203125 143.73828125 C-241.94406265 143.97277985 -242.56781281 144.20727844 -243.21046448 144.44888306 C-246.27671551 145.6026136 -249.33922079 146.76496626 -252.3972168 147.94042969 C-253.48945557 148.35325195 -254.58169434 148.76607422 -255.70703125 149.19140625 C-256.6813208 149.56467041 -257.65561035 149.93793457 -258.65942383 150.32250977 C-261 151 -261 151 -263 150 C-263.09997656 144.95041472 -263.17198266 139.90142397 -263.21972656 134.85107422 C-263.23965999 133.13840683 -263.26681705 131.42580586 -263.30175781 129.71337891 C-263.56580002 116.42584314 -263.04743994 104.54053683 -253.9453125 93.953125 C-248.59118767 88.57749767 -242.60810697 85.69718104 -235.57421875 82.99609375 C-234.80753876 82.70003738 -234.04085876 82.40398102 -233.25094604 82.09895325 C-221.13718142 77.4719177 -208.88353788 73.21668669 -196.65527344 68.90386963 C-193.30992346 67.72348324 -189.96551303 66.54044214 -186.62109375 65.35742188 C-185.96298454 65.12464381 -185.30487534 64.89186575 -184.62682343 64.65203381 C-183.30040068 64.18286679 -181.97398212 63.71368798 -180.64756775 63.2444973 C-178.66863664 62.54458654 -176.68961017 61.84494593 -174.71057129 61.14533997 C-165.76349631 57.9818356 -156.82086759 54.80609654 -147.8828125 51.6171875 C-146.78466217 51.22585129 -145.68651184 50.83451508 -144.55508423 50.43132019 C-136.76817476 47.64979296 -129.0058352 44.8044214 -121.25 41.9375 C-108.04295165 37.06479836 -94.7756599 32.36948149 -81.5 27.6875 C-63.98609416 21.51056552 -46.52482857 15.20795498 -29.11590576 8.74113464 C-26.39749509 7.73246327 -23.67728034 6.72871174 -20.95690918 5.7253418 C-18.97553361 4.99093137 -16.99807653 4.24654427 -15.02050781 3.50195312 C-13.76642627 3.0373547 -12.51220134 2.5731431 -11.2578125 2.109375 C-10.16871582 1.70170898 -9.07961914 1.29404297 -7.95751953 0.87402344 C-5 0 -5 0 0 0 Z " fill="#FFFFFF" transform="translate(320,152)"/>
<path d="M0 0 C3.88568056 3.20568646 6.51276338 5.91758292 7.50390625 10.99609375 C7.88690285 18.66838043 4.94265113 22.12385475 0.0625 27.734375 C-2.29531417 30.32831316 -4.7343728 32.82531243 -7.21459961 35.30200195 C-7.90502853 35.9991481 -8.59545746 36.69629425 -9.30680847 37.41456604 C-11.56261071 39.68917656 -13.82569939 41.95635138 -16.08984375 44.22265625 C-17.67507612 45.8143247 -19.26016177 47.4061393 -20.84510803 48.99809265 C-24.15581208 52.32072372 -27.4705746 55.63924439 -30.7878418 58.95532227 C-35.02906622 63.19634289 -39.25632946 67.45099195 -43.48023129 71.70925617 C-46.74454981 74.99584246 -50.01794926 78.27326741 -53.29394722 81.54820824 C-54.85640834 83.11302225 -56.41564417 84.68106387 -57.97150993 86.25243568 C-60.14858941 88.44918653 -62.3380702 90.63281354 -64.53100586 92.8137207 C-65.16449951 93.45845337 -65.79799316 94.10318604 -66.45068359 94.76745605 C-71.41545029 99.66357384 -76.42485925 103.23256918 -83.4375 104.234375 C-92.55779991 102.93147501 -98.10538873 97.15909816 -104.328125 90.875 C-105.62867828 89.58018707 -105.62867828 89.58018707 -106.95550537 88.25921631 C-108.77896719 86.43846645 -110.59742761 84.61269549 -112.41113281 82.78222656 C-115.17864186 79.99330169 -117.96683539 77.22635441 -120.7578125 74.4609375 C-122.53253389 72.68357272 -124.30601396 70.90496742 -126.078125 69.125 C-126.90733459 68.30388733 -127.73654419 67.48277466 -128.59088135 66.63677979 C-138.6924611 56.37079297 -138.6924611 56.37079297 -139.05206299 49.56671143 C-138.71982171 43.89028865 -136.09351195 39.96738738 -132.1875 35.921875 C-127.46491031 33.42939711 -123.42862696 33.30833873 -118.4375 34.734375 C-110.93236429 38.52910654 -105.22060267 45.40634234 -99.37817383 51.31005859 C-94.20183474 56.52345977 -88.82733331 61.33903371 -82.9375 65.734375 C-82.14902679 64.93923996 -81.36055359 64.14410492 -80.54818726 63.32487488 C-73.1115814 55.82741751 -65.66703904 48.33792184 -58.21468163 40.85612011 C-54.38373331 37.00952525 -50.55562197 33.16019362 -46.73388672 29.30444336 C-43.04465228 25.58258013 -39.34810833 21.8681227 -35.6464119 18.15865517 C-34.23641551 16.74312166 -32.82905946 15.324953 -31.4244194 13.90410423 C-29.45445189 11.9123164 -27.47524966 9.93015976 -25.49365234 7.94995117 C-24.62833893 7.06845901 -24.62833893 7.06845901 -23.74554443 6.16915894 C-17.48871295 -0.04047923 -8.5385195 -5.57758129 0 0 Z " fill="#FFFFFF" transform="translate(444.9375,329.265625)"/>
<path d="M0 0 C9.22968225 8.30399141 11.88513586 23.50800877 15 35 C15.18771973 35.68739258 15.37543945 36.37478516 15.56884766 37.08300781 C16.18455467 39.82056812 16.09293771 42.44973049 16.0625 45.25 C16.05347656 46.32765625 16.04445313 47.4053125 16.03515625 48.515625 C16.02355469 49.33546875 16.01195312 50.1553125 16 51 C15.67 51 15.34 51 15 51 C14.8046875 49.11197917 14.609375 47.22395833 14.4140625 45.3359375 C13.90033582 42.43774356 12.94403772 39.78732306 12 37 C11.40569034 34.69029654 10.82310815 32.37755531 10.25 30.0625 C8.20739337 22.07639153 5.22289523 14.57380378 2 7 C1.34 7 0.68 7 0 7 C-0.93423645 3.98968256 -1.04449911 3.13349732 0 0 Z " fill="#FFFFFF" transform="translate(471,316)"/>
<path d="M0 0 C0.33 0 0.66 0 1 0 C0.67 13.2 0.34 26.4 0 40 C-0.33 40 -0.66 40 -1 40 C-1.06058594 39.37351562 -1.12117187 38.74703125 -1.18359375 38.1015625 C-1.26738281 37.28429687 -1.35117188 36.46703125 -1.4375 35.625 C-1.51871094 34.81289063 -1.59992188 34.00078125 -1.68359375 33.1640625 C-1.89090114 30.95727195 -1.89090114 30.95727195 -3 29 C-3.09932209 26.44683815 -3.14169365 23.92769009 -3.125 21.375 C-3.12161621 20.64949951 -3.11823242 19.92399902 -3.11474609 19.17651367 C-3.04984459 12.46071735 -2.90847179 6.20473982 0 0 Z " fill="#FFFFFF" transform="translate(241,351)"/>
<path d="M0 0 C0.33 0 0.66 0 1 0 C1.33 2.31 1.66 4.62 2 7 C2.66 6.67 3.32 6.34 4 6 C4 12.27 4 18.54 4 25 C3.34 24.34 2.68 23.68 2 23 C1.34 27.29 0.68 31.58 0 36 C-0.33 36 -0.66 36 -1 36 C-0.49354466 27.31482976 0.02295299 18.64790541 1 10 C0.34 10 -0.32 10 -1 10 C-0.67 6.7 -0.34 3.4 0 0 Z " fill="#FFFFFF" transform="translate(485,359)"/>
<path d="M0 0 C0.33 0.66 0.66 1.32 1 2 C0.2590332 3.61645508 0.2590332 3.61645508 -0.94921875 5.51953125 C-1.38556641 6.21240234 -1.82191406 6.90527344 -2.27148438 7.61914062 C-2.73876953 8.34294922 -3.20605469 9.06675781 -3.6875 9.8125 C-4.13544922 10.52470703 -4.58339844 11.23691406 -5.04492188 11.97070312 C-7.49960128 15.83316082 -10.05326701 19.48738386 -13 23 C-13.66 22.67 -14.32 22.34 -15 22 C-12.2525679 17.11985804 -9.39258767 12.34249538 -6.375 7.625 C-5.78332031 6.68333984 -5.78332031 6.68333984 -5.1796875 5.72265625 C-2.23583829 1.11791915 -2.23583829 1.11791915 0 0 Z " fill="#FFFFFF" transform="translate(474,425)"/>
<path d="M0 0 C0.33 0 0.66 0 1 0 C1.87970759 11.53394402 -1.27572842 22.17948123 -5 33 C-5.33 33 -5.66 33 -6 33 C-6.45510807 26.32508169 -4.7672426 20.40625443 -3 14 C-2.34 14 -1.68 14 -1 14 C-0.67 9.38 -0.34 4.76 0 0 Z " fill="#FFFFFF" transform="translate(486,381)"/>
<path d="M0 0 C0 3.65387129 -0.76856706 4.25736369 -3.0625 7 C-7.15424992 12.06875959 -10.59112821 17.45669786 -14 23 C-14.73046875 21.37109375 -14.73046875 21.37109375 -15 19 C-13.48828125 16.16015625 -13.48828125 16.16015625 -11.3125 13.0625 C-10.60738281 12.04285156 -9.90226562 11.02320313 -9.17578125 9.97265625 C-3.66467066 2.44311377 -3.66467066 2.44311377 0 0 Z " fill="#FFFFFF" transform="translate(272,283)"/>
<path d="M0 0 C4.42659135 1.41206677 6.90947845 3.56114445 10.125 6.875 C11.39730469 8.17050781 11.39730469 8.17050781 12.6953125 9.4921875 C16.68676962 13.83543406 16.68676962 13.83543406 18 16 C17.67 16.99 17.34 17.98 17 19 C16.59160889 18.5560791 16.18321777 18.1121582 15.76245117 17.65478516 C13.90732807 15.64188572 12.04748001 13.63341191 10.1875 11.625 C9.54490234 10.92632812 8.90230469 10.22765625 8.24023438 9.5078125 C7.30727539 8.50234375 7.30727539 8.50234375 6.35546875 7.4765625 C5.78465576 6.85861816 5.21384277 6.24067383 4.62573242 5.60400391 C2.88894156 3.7890892 2.88894156 3.7890892 0 2 C0 1.34 0 0.68 0 0 Z " fill="#FFFFFF" transform="translate(468,267)"/>
<path d="M0 0 C0.8353125 0.37125 0.8353125 0.37125 1.6875 0.75 C0.6975 1.36875 -0.2925 1.9875 -1.3125 2.625 C-2.3025 3.32625 -3.2925 4.0275 -4.3125 4.75 C-4.3125 5.41 -4.3125 6.07 -4.3125 6.75 C-5.055 7.306875 -5.7975 7.86375 -6.5625 8.4375 C-9.92494597 11.26501138 -11.29986627 13.87381652 -13.3125 17.75 C-13.6425 17.75 -13.9725 17.75 -14.3125 17.75 C-14.80788283 12.24250852 -12.57107962 9.93387438 -9.1875 5.84765625 C-3.61154998 -0.39043784 -3.61154998 -0.39043784 0 0 Z " fill="#FFFFFF" transform="translate(75.3125,240.25)"/>
<path d="M0 0 C0.33 0.99 0.66 1.98 1 3 C0.16855469 3.48210937 -0.66289062 3.96421875 -1.51953125 4.4609375 C-2.60621094 5.09257812 -3.69289063 5.72421875 -4.8125 6.375 C-5.89144531 7.00148437 -6.97039062 7.62796875 -8.08203125 8.2734375 C-10.08831093 9.46055346 -12.06034059 10.70689373 -14 12 C-15.32 11.67 -16.64 11.34 -18 11 C-14.37 8.69 -10.74 6.38 -7 4 C-7.33 3.34 -7.66 2.68 -8 2 C-5.36 1.34 -2.72 0.68 0 0 Z " fill="#FFFFFF" transform="translate(300,227)"/>
<path d="M0 0 C5.285021 7.9275315 5.44201688 17.76675857 5 27 C4.67 27 4.34 27 4 27 C3.87625 25.80375 3.7525 24.6075 3.625 23.375 C3.17237319 19.71518893 2.26323868 16.47390636 1 13 C0.10832854 10.00697693 -0.1083703 7.36918026 -0.0625 4.25 C-0.05347656 3.45078125 -0.04445313 2.6515625 -0.03515625 1.828125 C-0.02355469 1.22484375 -0.01195312 0.6215625 0 0 Z " fill="#FFFFFF" transform="translate(482,340)"/>
<path d="M0 0 C5.94 0.33 11.88 0.66 18 1 C18 1.33 18 1.66 18 2 C16.2984375 2.2165625 16.2984375 2.2165625 14.5625 2.4375 C11.19222799 2.61171478 11.19222799 2.61171478 10 4 C8.36527118 4.08700342 6.72685945 4.10701063 5.08984375 4.09765625 C4.10048828 4.09443359 3.11113281 4.09121094 2.09179688 4.08789062 C1.05087891 4.07951172 0.00996094 4.07113281 -1.0625 4.0625 C-2.10728516 4.05798828 -3.15207031 4.05347656 -4.22851562 4.04882812 C-6.8190666 4.03699913 -9.40950559 4.02051689 -12 4 C-12 3.67 -12 3.34 -12 3 C-5.565 2.505 -5.565 2.505 1 2 C0.67 1.34 0.34 0.68 0 0 Z " fill="#FFFFFF" transform="translate(379,510)"/>
<path d="M0 0 C5.38493928 0.30970894 7.82467404 3.35430107 11.3125 7.0625 C12.13717773 7.91424805 12.13717773 7.91424805 12.97851562 8.78320312 C14.32827365 10.17990925 15.66541525 11.58878837 17 13 C16.67 13.99 16.34 14.98 16 16 C15.34773438 15.33613281 14.69546875 14.67226563 14.0234375 13.98828125 C8.39641677 8.24966611 8.39641677 8.24966611 2.375 2.9375 C1.59125 2.298125 0.8075 1.65875 0 1 C0 0.67 0 0.34 0 0 Z " fill="#FFFFFF" transform="translate(327,366)"/>
<path d="M0 0 C0.33 0 0.66 0 1 0 C1.01981934 0.82201904 1.03963867 1.64403809 1.06005859 2.4909668 C1.15544603 6.22346126 1.26507089 9.9554067 1.375 13.6875 C1.4059375 14.98107422 1.436875 16.27464844 1.46875 17.60742188 C1.50742188 18.85458984 1.54609375 20.10175781 1.5859375 21.38671875 C1.6173584 22.53358154 1.6487793 23.68044434 1.68115234 24.86206055 C1.99423652 27.94327872 2.69670803 30.2082114 4 33 C3.01 33 2.02 33 1 33 C0.67 33.99 0.34 34.98 0 36 C0 24.12 0 12.24 0 0 Z " fill="#FFFFFF" transform="translate(250,233)"/>
<path d="M0 0 C4.65162795 -0.45654867 7.28764146 0.95557984 11.25 3.3125 C12.30703125 3.92738281 13.3640625 4.54226562 14.453125 5.17578125 C17 7 17 7 18 10 C15.3570134 9.01831926 13.0143339 8.00905299 10.625 6.5 C7.92526227 4.8089111 7.92526227 4.8089111 4.25 4 C3.1775 3.67 2.105 3.34 1 3 C0.67 2.01 0.34 1.02 0 0 Z " fill="#FFFFFF" transform="translate(432,244)"/>
<path d="M0 0 C4.22245061 2.16966753 6.34738369 4.43996091 8.875 8.4375 C9.49117188 9.38496094 10.10734375 10.33242188 10.7421875 11.30859375 C12.15061479 14.32227824 11.95556215 14.97485956 11 18 C9.34990683 15.56528902 7.70481602 13.12744835 6.0625 10.6875 C5.35963867 9.65206055 5.35963867 9.65206055 4.64257812 8.59570312 C4.19462891 7.92861328 3.74667969 7.26152344 3.28515625 6.57421875 C2.87144775 5.96151123 2.45773926 5.34880371 2.03149414 4.7175293 C1 3 1 3 0 0 Z " fill="#FFFFFF" transform="translate(488,289)"/>
<path d="M0 0 C4.16915278 1.38971759 4.69511721 3.49568259 6.75 7.3125 C7.38421875 8.46363281 8.0184375 9.61476563 8.671875 10.80078125 C10 14 10 14 9.703125 16.41796875 C9.47109375 16.94003906 9.2390625 17.46210938 9 18 C7.68144905 15.75335738 6.37006028 13.50302694 5.0625 11.25 C4.68931641 10.61578125 4.31613281 9.9815625 3.93164062 9.328125 C2.14463236 6.23708368 0.75114727 3.48532332 0 0 Z " fill="#FFFFFF" transform="translate(277,418)"/>
<path d="M0 0 C0.33 0 0.66 0 1 0 C0.85970581 2.1462026 0.71261836 4.29196218 0.5625 6.4375 C0.48128906 7.63246094 0.40007812 8.82742188 0.31640625 10.05859375 C0 13 0 13 -1 14 C-1.23192865 15.51469448 -1.41215238 17.03754562 -1.5625 18.5625 C-1.64628906 19.38878906 -1.73007812 20.21507812 -1.81640625 21.06640625 C-1.87699219 21.70449219 -1.93757813 22.34257812 -2 23 C-2.33 23 -2.66 23 -3 23 C-3.433422 14.84524526 -2.29370226 7.82316305 0 0 Z " fill="#FFFFFF" transform="translate(271,345)"/>
<path d="M0 0 C3 1 3 1 5 3 C-0.67989374 5.49118146 -3.94474232 6.38766322 -10 5 C-7.03869547 2.47740725 -4.81671041 1.61892601 -1 1 C-0.67 0.67 -0.34 0.34 0 0 Z " fill="#FFFFFF" transform="translate(201,139)"/>
<path d="M0 0 C0.66 0.99 1.32 1.98 2 3 C1.34 3 0.68 3 0 3 C0 5.97 0 8.94 0 12 C0.66 12 1.32 12 2 12 C3.0625 13.8125 3.0625 13.8125 4 16 C3.67 16.99 3.34 17.98 3 19 C-0.67505123 14.25799842 -1.80846835 11.03324692 -2 5 C-1.0625 2 -1.0625 2 0 0 Z " fill="#FFFFFF" transform="translate(308,371)"/>
<path d="M0 0 C0 0.33 0 0.66 0 1 C-1.04800781 1.07347656 -1.04800781 1.07347656 -2.1171875 1.1484375 C-3.02726562 1.22320312 -3.93734375 1.29796875 -4.875 1.375 C-5.77992188 1.44460938 -6.68484375 1.51421875 -7.6171875 1.5859375 C-10.17941903 1.79568132 -10.17941903 1.79568132 -12 4 C-14.125 4.625 -14.125 4.625 -16 5 C-14.37076868 1.35818882 -13.41120151 0.17844594 -9.6875 -1.4375 C-5.70644279 -2.04477991 -3.64474102 -1.60013021 0 0 Z " fill="#FFFFFF" transform="translate(442,329)"/>
<path d="M0 0 C-0.66 0 -1.32 0 -2 0 C-1.67 0.99 -1.34 1.98 -1 3 C-5.875 4 -5.875 4 -7 4 C-8.34136367 4.65035814 -9.67532254 5.3162955 -11 6 C-11 5.34 -11 4.68 -11 4 C-11.99 3.67 -12.98 3.34 -14 3 C-12.23358317 2.3012307 -10.46167336 1.61633417 -8.6875 0.9375 C-7.20830078 0.36322266 -7.20830078 0.36322266 -5.69921875 -0.22265625 C-3 -1 -3 -1 0 0 Z " fill="#FFFFFF" transform="translate(162,315)"/>
<path d="M0 0 C-2.41407698 1.60938465 -4.34044437 2.65490738 -7 3.6875 C-7.680625 3.95949219 -8.36125 4.23148438 -9.0625 4.51171875 C-11 5 -11 5 -14 4 C-13.34 4 -12.68 4 -12 4 C-12 3.01 -12 2.02 -12 1 C-7.67265609 -1.22923777 -4.71599818 -0.92470553 0 0 Z " fill="#FFFFFF" transform="translate(234,131)"/>
<path d="M0 0 C-3.10378852 2.63822024 -5.81462924 3.70365731 -9.75 4.6875 C-11.22726563 5.06455078 -11.22726563 5.06455078 -12.734375 5.44921875 C-13.48203125 5.63097656 -14.2296875 5.81273437 -15 6 C-14 3 -14 3 -12.36328125 2.05078125 C-8.08873693 0.5119453 -4.61594432 -0.34619582 0 0 Z " fill="#FFFFFF" transform="translate(243,180)"/>
<path d="M0 0 C0.66 1.32 1.32 2.64 2 4 C2.66 4 3.32 4 4 4 C4.69685498 5.6210103 5.38222861 7.24696066 6.0625 8.875 C6.44535156 9.77992188 6.82820313 10.68484375 7.22265625 11.6171875 C8 14 8 14 7 16 C5.82558465 13.89983377 4.66035988 11.79541245 3.5 9.6875 C3.16613281 9.09259766 2.83226562 8.49769531 2.48828125 7.88476562 C0.93174886 5.04171156 0 3.29339012 0 0 Z " fill="#FFFFFF" transform="translate(250,429)"/>
<path d="M0 0 C1.32 0.33 2.64 0.66 4 1 C1.03 3.64 -1.94 6.28 -5 9 C-5.66 8.67 -6.32 8.34 -7 8 C-4.69 5.36 -2.38 2.72 0 0 Z " fill="#FFFFFF" transform="translate(292,261)"/>
<path d="M0 0 C-2.70188004 1.80125336 -4.93057703 3.00243753 -8 4 C-11 3 -11 3 -13 1 C-8.23947038 -0.97387813 -5.03511899 -1.0070238 0 0 Z " fill="#FFFFFF" transform="translate(264,120)"/>
<path d="M0 0 C-1.59915881 0.69906942 -3.20455045 1.38389468 -4.8125 2.0625 C-5.70582031 2.44535156 -6.59914063 2.82820313 -7.51953125 3.22265625 C-10 4 -10 4 -13 3 C-12.34 3 -11.68 3 -11 3 C-11 2.01 -11 1.02 -11 0 C-3.375 -2.25 -3.375 -2.25 0 0 Z " fill="#FFFFFF" transform="translate(280,115)"/>
<path d="M0 0 C1.44715727 3.87186448 0.5441918 6.8232328 -0.4375 10.75 C-0.86869141 12.50570313 -0.86869141 12.50570313 -1.30859375 14.296875 C-1.53675781 15.18890625 -1.76492187 16.0809375 -2 17 C-2.33 17 -2.66 17 -3 17 C-3.02705729 15.22925083 -3.04642195 13.45838289 -3.0625 11.6875 C-3.07410156 10.70136719 -3.08570313 9.71523438 -3.09765625 8.69921875 C-3 6 -3 6 -2 3 C-1.34 3 -0.68 3 0 3 C0 2.01 0 1.02 0 0 Z " fill="#FFFFFF" transform="translate(245,333)"/>
<path d="M0 0 C0.33 0.99 0.66 1.98 1 3 C-3.92984325 5.03993514 -7.57960425 6.40652968 -13 6 C-10.59195432 3.59195432 -8.57796225 2.99231241 -5.375 1.875 C-4.37210938 1.52179688 -3.36921875 1.16859375 -2.3359375 0.8046875 C-1.56507813 0.53914062 -0.79421875 0.27359375 0 0 Z " fill="#FFFFFF" transform="translate(204,247)"/>
<path d="M0 0 C0.89525391 0.30164063 0.89525391 0.30164063 1.80859375 0.609375 C0.02334726 1.80650517 -1.76980905 2.99184779 -3.56640625 4.171875 C-5.06300781 5.16380859 -5.06300781 5.16380859 -6.58984375 6.17578125 C-7.44835937 6.64886719 -8.306875 7.12195313 -9.19140625 7.609375 C-9.85140625 7.279375 -10.51140625 6.949375 -11.19140625 6.609375 C-8.34034453 3.44152865 -4.47948922 -0.79848293 0 0 Z " fill="#FFFFFF" transform="translate(440.19140625,463.390625)"/>
<path d="M0 0 C4.23429756 1.31061591 8.07407404 2.94356259 12 5 C8.70303895 6.09898702 7.59505097 5.87124444 4.3125 5.0625 C3.50425781 4.86785156 2.69601562 4.67320312 1.86328125 4.47265625 C1.24839844 4.31667969 0.63351562 4.16070312 0 4 C0 2.66666667 0 1.33333333 0 0 Z " fill="#FFFFFF" transform="translate(321,467)"/>
<path d="M0 0 C7.75 0.75 7.75 0.75 10 3 C9.67 3.66 9.34 4.32 9 5 C8.01 4.67 7.02 4.34 6 4 C3.66700175 3.96045766 1.33291811 3.95598268 -1 4 C-0.34 3.34 0.32 2.68 1 2 C0.67 1.34 0.34 0.68 0 0 Z " fill="#FFFFFF" transform="translate(319,363)"/>
<path d="M0 0 C0.47050781 0.40992188 0.94101562 0.81984375 1.42578125 1.2421875 C2.04839844 1.78101563 2.67101562 2.31984375 3.3125 2.875 C4.23482422 3.67550781 4.23482422 3.67550781 5.17578125 4.4921875 C7.13498212 6.1640447 7.13498212 6.1640447 10 8 C10 8.66 10 9.32 10 10 C6.7451198 9.41978222 5.06347592 8.47352859 2.75 6.125 C2.22921875 5.61195313 1.7084375 5.09890625 1.171875 4.5703125 C0 3 0 3 0 0 Z " fill="#FFFFFF" transform="translate(278,469)"/>
<path d="M0 0 C0.66 0 1.32 0 2 0 C1.00449135 2.6245228 0.06036546 3.95028727 -2.125 5.75 C-5.98275174 7.42728337 -8.81513202 7.2127899 -13 7 C-10.49350367 5.69662191 -7.99102161 4.5824917 -5.375 3.5 C-2.00448724 2.24380662 -2.00448724 2.24380662 0 0 Z " fill="#FFFFFF" transform="translate(373,425)"/>
<path d="M0 0 C0.33 0 0.66 0 1 0 C1.08121924 1.60332791 1.13929134 3.20784026 1.1875 4.8125 C1.22230469 5.70582031 1.25710938 6.59914063 1.29296875 7.51953125 C0.95081002 10.41647515 0.24606427 11.22555028 -2 13 C-2.66 12.67 -3.32 12.34 -4 12 C-3.71640113 10.5608866 -3.42278601 9.12374482 -3.125 7.6875 C-2.96257812 6.88699219 -2.80015625 6.08648437 -2.6328125 5.26171875 C-2 3 -2 3 0 0 Z " fill="#FFFFFF" transform="translate(451,338)"/>
<path d="M0 0 C0.33 0.66 0.66 1.32 1 2 C-4.75 3 -4.75 3 -7 3 C-7 3.66 -7 4.32 -7 5 C-8.32 4.34 -9.64 3.68 -11 3 C-4.33333333 -1.44444444 -4.33333333 -1.44444444 0 0 Z " fill="#FFFFFF" transform="translate(137,218)"/>
<path d="M0 0 C-2.85021875 2.32240046 -5.46355091 3.93906527 -9 5 C-11.3125 4.625 -11.3125 4.625 -13 4 C-12.34 4 -11.68 4 -11 4 C-11 3.34 -11 2.68 -11 2 C-7.17010894 0.19769832 -4.21878192 -0.19622241 0 0 Z " fill="#FFFFFF" transform="translate(374,20)"/>
<path d="M0 0 C-2.70188004 1.80125336 -4.93057703 3.00243753 -8 4 C-8.99 3.67 -9.98 3.34 -11 3 C-10.34 3 -9.68 3 -9 3 C-9 2.01 -9 1.02 -9 0 C-5.93109813 -1.53445094 -3.29905734 -0.54984289 0 0 Z " fill="#FFFFFF" transform="translate(253,124)"/>
<path d="M0 0 C0.5534764 2.07553648 1 3.84365964 1 6 C-1.31 6.66 -3.62 7.32 -6 8 C-4.55746343 4.63408134 -2.66735273 2.48952921 0 0 Z " fill="#FFFFFF" transform="translate(131,111)"/>
<path d="M0 0 C0.33 0.66 0.66 1.32 1 2 C-1.31 2.66 -3.62 3.32 -6 4 C-6 3.34 -6 2.68 -6 2 C-6.99 1.67 -7.98 1.34 -9 1 C-3.375 -1.125 -3.375 -1.125 0 0 Z " fill="#FFFFFF" transform="translate(37,360)"/>
<path d="M0 0 C-0.33 0.66 -0.66 1.32 -1 2 C-0.34 2.33 0.32 2.66 1 3 C-2.8063457 2.32829194 -6.35206816 1.27253436 -10 0 C-10 -0.33 -10 -0.66 -10 -1 C-5.92224809 -1.9267618 -3.57818963 -2.33958553 0 0 Z " fill="#FFFFFF" transform="translate(417,268)"/>
<path d="M0 0 C-2.70188004 1.80125336 -4.93057703 3.00243753 -8 4 C-8.99 3.67 -9.98 3.34 -11 3 C-10.34 3 -9.68 3 -9 3 C-9 2.01 -9 1.02 -9 0 C-5.93109813 -1.53445094 -3.29905734 -0.54984289 0 0 Z " fill="#FFFFFF" transform="translate(178,151)"/>
<path d="M0 0 C-0.66 0 -1.32 0 -2 0 C-1.67 0.99 -1.34 1.98 -1 3 C-7.625 4.25 -7.625 4.25 -11 2 C-9.73392393 1.46770674 -8.46189588 0.94955456 -7.1875 0.4375 C-6.47980469 0.14746094 -5.77210938 -0.14257812 -5.04296875 -0.44140625 C-3 -1 -3 -1 0 0 Z " fill="#FFFFFF" transform="translate(159,100)"/>
<path d="M0 0 C-0.33 0.66 -0.66 1.32 -1 2 C-3.06640625 2.6328125 -3.06640625 2.6328125 -5.5625 3.125 C-6.38878906 3.29257813 -7.21507812 3.46015625 -8.06640625 3.6328125 C-8.70449219 3.75398437 -9.34257812 3.87515625 -10 4 C-10 3.34 -10 2.68 -10 2 C-8.71211992 1.46987262 -7.41953322 0.9511671 -6.125 0.4375 C-5.40570313 0.14746094 -4.68640625 -0.14257812 -3.9453125 -0.44140625 C-2 -1 -2 -1 0 0 Z " fill="#FFFFFF" transform="translate(226,241)"/>
<path d="M0 0 C3.8063457 0.67170806 7.35206816 1.72746564 11 3 C11 3.33 11 3.66 11 4 C4.375 4.125 4.375 4.125 1 3 C0.67 2.01 0.34 1.02 0 0 Z " fill="#FFFFFF" transform="translate(329,503)"/>
<path d="M0 0 C0.66 0.33 1.32 0.66 2 1 C1.25 3.4375 1.25 3.4375 0 6 C-2.125 6.8125 -2.125 6.8125 -4 7 C-2.92598892 4.08482708 -2.22189824 2.22189824 0 0 Z " fill="#FFFFFF" transform="translate(419,377)"/>
<path d="M0 0 C2.12046792 3.53411321 2.53199289 6.94393835 3 11 C0.24438617 8.96324195 -0.03270868 7.84190804 -0.75 4.375 C-0.8325 3.26125 -0.915 2.1475 -1 1 C-0.67 0.67 -0.34 0.34 0 0 Z " fill="#FFFFFF" transform="translate(511,331)"/>
<path d="M0 0 C0.33 0 0.66 0 1 0 C0.125 7.625 0.125 7.625 -1 11 C-1.66 11 -2.32 11 -3 11 C-2.44894091 7.0507432 -1.61064629 3.65079826 0 0 Z " fill="#FFFFFF" transform="translate(275,333)"/>
<path d="M0 0 C0.99 0.33 1.98 0.66 3 1 C2.34 1 1.68 1 1 1 C1.33 1.99 1.66 2.98 2 4 C-0.31 4.66 -2.62 5.32 -5 6 C-5 5.01 -5 4.02 -5 3 C-2 1 -2 1 0 0 Z " fill="#FFFFFF" transform="translate(145,319)"/>
<path d="M0 0 C2.52259061 1.97420135 2.9929808 2.96745642 3.6875 6.1875 C3.790625 7.115625 3.89375 8.04375 4 9 C2.0625 8.25 2.0625 8.25 0 7 C-1.23843794 4.04680182 -1.04187157 3.12561472 0 0 Z " fill="#FFFFFF" transform="translate(471,316)"/>
<path d="M0 0 C0.33 0.99 0.66 1.98 1 3 C-3.1077065 4.58706842 -4.59232396 5.10191901 -9 4 C-6.03 2.68 -3.06 1.36 0 0 Z " fill="#FFFFFF" transform="translate(69,296)"/>
<path d="M0 0 C4.41889613 1.35021826 6.34345343 3.26115668 9 7 C4.75272765 6.52808085 2.76506398 4.07229331 0 1 C0 0.67 0 0.34 0 0 Z " fill="#FFFFFF" transform="translate(437,280)"/>
<path d="M0 0 C2.3125 0.8125 2.3125 0.8125 4 2 C1.08235 3.9451 -0.62537285 4.45276317 -4 5 C-4.33 4.34 -4.66 3.68 -5 3 C-2.75 1.375 -2.75 1.375 0 0 Z " fill="#FFFFFF" transform="translate(158,155)"/>
<path d="M0 0 C0.8971875 0.309375 0.8971875 0.309375 1.8125 0.625 C0.843125 1.24375 -0.12625 1.8625 -1.125 2.5 C-4.21585362 4.28178846 -4.21585362 4.28178846 -5.1875 6.625 C-5.8475 6.295 -6.5075 5.965 -7.1875 5.625 C-5.69046729 2.17030914 -4.27938051 -0.73360809 0 0 Z " fill="#FFFFFF" transform="translate(138.1875,107.375)"/>
<path d="M0 0 C3 1 3 1 5 3 C0.375 5.125 0.375 5.125 -3 4 C-2.67 3.01 -2.34 2.02 -2 1 C-1.34 0.67 -0.68 0.34 0 0 Z " fill="#FFFFFF" transform="translate(349,85)"/>
<path d="M0 0 C0.33 0 0.66 0 1 0 C0.38461538 6.52307692 0.38461538 6.52307692 -1.5625 8.9375 C-2.036875 9.288125 -2.51125 9.63875 -3 10 C-3.33 9.34 -3.66 8.68 -4 8 C-3.22265625 6.0546875 -3.22265625 6.0546875 -2.0625 3.875 C-1.49208984 2.78832031 -1.49208984 2.78832031 -0.91015625 1.6796875 C-0.60980469 1.12539063 -0.30945313 0.57109375 0 0 Z " fill="#FFFFFF" transform="translate(504,428)"/>
<path d="M0 0 C0.99 0 1.98 0 3 0 C4.75 2.25 4.75 2.25 6 5 C5.67 6.32 5.34 7.64 5 9 C3.35 6.03 1.7 3.06 0 0 Z " fill="#FFFFFF" transform="translate(281,427)"/>
<path d="M0 0 C-2.26185454 2.26185454 -3.96983561 3.03921617 -7 4 C-7.99 3.67 -8.98 3.34 -10 3 C-8.0130571 -0.97388579 -3.91761109 -0.08705802 0 0 Z " fill="#FFFFFF" transform="translate(70,348)"/>
<path d="M0 0 C0.6875 1.6875 0.6875 1.6875 1 4 C-0.25 6.6875 -0.25 6.6875 -2 9 C-2.99 9.33 -3.98 9.66 -5 10 C-3.66511872 6.40608886 -2.03977277 3.24509304 0 0 Z " fill="#FFFFFF" transform="translate(286,311)"/>
<path d="M0 0 C0.33 0.99 0.66 1.98 1 3 C-1.64 4.65 -4.28 6.3 -7 8 C-7 7.01 -7 6.02 -7 5 C-5.46875 3.61328125 -5.46875 3.61328125 -3.5 2.3125 C-2.8503125 1.87550781 -2.200625 1.43851562 -1.53125 0.98828125 C-1.0259375 0.66214844 -0.520625 0.33601563 0 0 Z " fill="#FFFFFF" transform="translate(317,279)"/>
<path d="M0 0 C4.12751449 0.60698743 7.3321148 2.03810791 11 4 C8.21176345 5.0326802 7.1322726 5.04509293 4.25 4.0625 C3.5075 3.711875 2.765 3.36125 2 3 C2 2.34 2 1.68 2 1 C1.34 0.67 0.68 0.34 0 0 Z " fill="#FFFFFF" transform="translate(416,269)"/>
<path d="M0 0 C3 1 3 1 5 3 C2.36 3.66 -0.28 4.32 -3 5 C-2.67 3.68 -2.34 2.36 -2 1 C-1.34 0.67 -0.68 0.34 0 0 Z " fill="#FFFFFF" transform="translate(167,259)"/>
<path d="M0 0 C0.66 0.33 1.32 0.66 2 1 C2 1.99 2 2.98 2 4 C0.35 4.33 -1.3 4.66 -3 5 C-3.33 4.01 -3.66 3.02 -4 2 C-2.125 0.9375 -2.125 0.9375 0 0 Z M-5 5 C-3 6 -3 6 -3 6 Z " fill="#FFFFFF" transform="translate(320,244)"/>
<path d="M0 0 C1.32 0.33 2.64 0.66 4 1 C-0.455 3.97 -0.455 3.97 -5 7 C-5 6.01 -5 5.02 -5 4 C-2.75 1.75 -2.75 1.75 0 0 Z " fill="#FFFFFF" transform="translate(73,240)"/>
<path d="M0 0 C-3.68734758 2.45823172 -6.69699971 3.01242616 -11 4 C-10.67 3.01 -10.34 2.02 -10 1 C-6.52674819 -0.1577506 -3.63932552 -0.06866652 0 0 Z " fill="#FFFFFF" transform="translate(339,239)"/>
<path d="M0 0 C-2.26185454 2.26185454 -3.96983561 3.03921617 -7 4 C-7.99 3.67 -8.98 3.34 -10 3 C-8.0130571 -0.97388579 -3.91761109 -0.08705802 0 0 Z " fill="#FFFFFF" transform="translate(179,203)"/>
<path d="M0 0 C-2.26185454 2.26185454 -3.96983561 3.03921617 -7 4 C-7.99 3.67 -8.98 3.34 -10 3 C-8.0130571 -0.97388579 -3.91761109 -0.08705802 0 0 Z " fill="#FFFFFF" transform="translate(299,160)"/>
<path d="M0 0 C2.64752004 2.57784846 4.94432065 4.91648098 7 8 C4.24542282 7.62005832 3.17979426 7.1926367 1.25 5.125 C0 3 0 3 0 0 Z " fill="#FFFFFF" transform="translate(270,460)"/>
<path d="M0 0 C0.66 0.66 1.32 1.32 2 2 C1.625 4.625 1.625 4.625 1 7 C-0.32 7 -1.64 7 -3 7 C-1.125 2.25 -1.125 2.25 0 0 Z " fill="#FFFFFF" transform="translate(256,304)"/>
<path d="M0 0 C0 3.90838866 -1.50567876 5.11594107 -4 8 C-4.99 7.67 -5.98 7.34 -7 7 C-4.78071806 4.09197539 -3.07030857 2.04687238 0 0 Z " fill="#FFFFFF" transform="translate(272,283)"/>
<path d="M0 0 C-1.1875 1.5 -1.1875 1.5 -3 3 C-5.6875 3.1875 -5.6875 3.1875 -8 3 C-7.67 2.01 -7.34 1.02 -7 0 C-2.25 -1.125 -2.25 -1.125 0 0 Z " fill="#FFFFFF" transform="translate(337,270)"/>
<path d="M0 0 C1.35015859 4.05047576 0.62084998 6.7920168 0 11 C-2.30163882 7.54754176 -2.34490322 6.05261287 -2 2 C-1.34 1.34 -0.68 0.68 0 0 Z " fill="#FFFFFF" transform="translate(60,259)"/>
<path d="M0 0 C-0.33 0.66 -0.66 1.32 -1 2 C-3.06640625 2.4140625 -3.06640625 2.4140625 -5.5625 2.625 C-6.38878906 2.69976562 -7.21507812 2.77453125 -8.06640625 2.8515625 C-9.02353516 2.92503906 -9.02353516 2.92503906 -10 3 C-7.28464405 0.28464405 -3.67870689 -1.83935344 0 0 Z " fill="#FFFFFF" transform="translate(190,254)"/>
<path d="M0 0 C-5.2734375 3.22265625 -5.2734375 3.22265625 -7 4 C-7.66 3.67 -8.32 3.34 -9 3 C-5.83583464 -0.30799106 -4.50236011 -1.35070803 0 0 Z " fill="#FFFFFF" transform="translate(318,248)"/>
<path d="M0 0 C0.33 0.66 0.66 1.32 1 2 C-1.31 2.66 -3.62 3.32 -6 4 C-6 2.68 -6 1.36 -6 0 C-3 -1 -3 -1 0 0 Z " fill="#FFFFFF" transform="translate(154,212)"/>
<path d="M0 0 C3 1 3 1 4 3 C1.36 3.66 -1.28 4.32 -4 5 C-4 4.34 -4 3.68 -4 3 C-3.34 3 -2.68 3 -2 3 C-2 2.34 -2 1.68 -2 1 C-1.34 0.67 -0.68 0.34 0 0 Z " fill="#FFFFFF" transform="translate(136,163)"/>
<path d="M0 0 C2.97 0.99 5.94 1.98 9 3 C9 3.33 9 3.66 9 4 C3.48 4.368 3.48 4.368 1.125 2.5625 C0 1 0 1 0 0 Z " fill="#FFFFFF" transform="translate(319,499)"/>
<path d="M0 0 C0.66 0 1.32 0 2 0 C3.32 2.64 4.64 5.28 6 8 C2 6 2 6 0 3 C0 2.01 0 1.02 0 0 Z " fill="#FFFFFF" transform="translate(260,447)"/>
<path d="M0 0 C1.258125 0.12375 2.51625 0.2475 3.8125 0.375 C4.87404297 0.47941406 4.87404297 0.47941406 5.95703125 0.5859375 C8 1 8 1 11 3 C4.6 3.36923077 4.6 3.36923077 1.5625 1.5 C1.046875 1.005 0.53125 0.51 0 0 Z " fill="#FFFFFF" transform="translate(400,264)"/>
<path d="M0 0 C-2.55068845 2.35448165 -3.71017358 2.98327924 -7.25 3.1875 C-8.1575 3.125625 -9.065 3.06375 -10 3 C-7.28464405 0.28464405 -3.67870689 -1.83935344 0 0 Z " fill="#FFFFFF" transform="translate(165,263)"/>
<path d="M0 0 C-1.39332574 3.36720387 -2.9789286 4.9859524 -6 7 C-6 4 -6 4 -4.125 1.8125 C-2 0 -2 0 0 0 Z " fill="#FFFFFF" transform="translate(267,251)"/>
<path d="M0 0 C-3.28463659 2.18975773 -6.20696275 2.99806563 -10 4 C-9.67 3.01 -9.34 2.02 -9 1 C-5.8035914 -0.06546953 -3.34252724 -0.07427838 0 0 Z " fill="#FFFFFF" transform="translate(129,221)"/>
<path d="M0 0 C0.66 0.33 1.32 0.66 2 1 C0.875 2.5 0.875 2.5 -1 4 C-4.1875 4.1875 -4.1875 4.1875 -7 4 C-4.61426621 2.10786631 -2.92824652 0.97608217 0 0 Z " fill="#FFFFFF" transform="translate(150,159)"/>
<path d="M0 0 C2.46800047 1.15173355 4.04783565 2.04783565 6 4 C5.67 4.99 5.34 5.98 5 7 C3.29115995 5.37660195 1.62553283 3.70680947 0 2 C0 1.34 0 0.68 0 0 Z " fill="#FFFFFF" transform="translate(296,447)"/>
<path d="M0 0 C1.64826111 2.96687001 2.44271087 5.65626525 3 9 C2.67 8.34 2.34 7.68 2 7 C1.34 7 0.68 7 0 7 C-0.38133299 5.0085944 -0.71325582 3.00720923 -1 1 C-0.67 0.67 -0.34 0.34 0 0 Z " fill="#FFFFFF" transform="translate(272,403)"/>
<path d="M0 0 C0.66 0.33 1.32 0.66 2 1 C1.67 1.99 1.34 2.98 1 4 C-0.98 4 -2.96 4 -5 4 C-3 1 -3 1 0 0 Z " fill="#FFFFFF" transform="translate(26,362)"/>
<path d="M0 0 C1.32 0 2.64 0 4 0 C4 0.99 4 1.98 4 3 C2.35 3.33 0.7 3.66 -1 4 C-1.33 3.34 -1.66 2.68 -2 2 C-1.34 2 -0.68 2 0 2 C0 1.34 0 0.68 0 0 Z " fill="#FFFFFF" transform="translate(109,332)"/>
<path d="M0 0 C0.33 0 0.66 0 1 0 C1 1.65 1 3.3 1 5 C0.67 5 0.34 5 0 5 C0 3.35 0 1.7 0 0 Z " fill="#FFFFFF" transform="translate(237,384)"/>
<path d="M0 0 C0.33 0 0.66 0 1 0 C1 1.65 1 3.3 1 5 C0.67 5 0.34 5 0 5 C0 3.35 0 1.7 0 0 Z " fill="#FFFFFF" transform="translate(236,366)"/>
<path d="" fill="#FFFFFF" transform="translate(0,0)"/>
<path d="M0 0 C2 1 2 1 2 1 Z " fill="#FFFFFF" transform="translate(124,516)"/>
<path d="M0 0 C2 1 2 1 2 1 Z " fill="#FFFFFF" transform="translate(116,516)"/>
<path d="M0 0 C2 1 2 1 2 1 Z " fill="#FFFFFF" transform="translate(100,516)"/>
<path d="M0 0 C2 1 2 1 2 1 Z " fill="#FFFFFF" transform="translate(13,514)"/>
<path d="" fill="#FFFFFF" transform="translate(0,0)"/>
<path d="" fill="#FFFFFF" transform="translate(0,0)"/>
<path d="M0 0 C2 1 2 1 2 1 Z " fill="#FFFFFF" transform="translate(329,469)"/>
<path d="M0 0 C2 1 2 1 2 1 Z " fill="#FFFFFF" transform="translate(444,455)"/>
<path d="" fill="#FFFFFF" transform="translate(0,0)"/>
<path d="" fill="#FFFFFF" transform="translate(0,0)"/>
<path d="" fill="#FFFFFF" transform="translate(0,0)"/>
<path d="" fill="#FFFFFF" transform="translate(0,0)"/>
<path d="" fill="#FFFFFF" transform="translate(0,0)"/>
<path d="M0 0 C2 1 2 1 2 1 Z " fill="#FFFFFF" transform="translate(13,365)"/>
<path d="" fill="#FFFFFF" transform="translate(0,0)"/>
<path d="" fill="#FFFFFF" transform="translate(0,0)"/>
<path d="" fill="#FFFFFF" transform="translate(0,0)"/>
<path d="" fill="#FFFFFF" transform="translate(0,0)"/>
<path d="M0 0 C2 1 2 1 2 1 Z " fill="#FFFFFF" transform="translate(246,236)"/>
<path d="" fill="#FFFFFF" transform="translate(0,0)"/>
<path d="M0 0 C2 1 2 1 2 1 Z " fill="#FFFFFF" transform="translate(318,150)"/>
<path d="" fill="#FFFFFF" transform="translate(0,0)"/>
<path d="" fill="#FFFFFF" transform="translate(0,0)"/>
<path d="" fill="#FFFFFF" transform="translate(0,0)"/>
<path d="" fill="#FFFFFF" transform="translate(0,0)"/>
<path d="" fill="#FFFFFF" transform="translate(0,0)"/>
<path d="" fill="#FFFFFF" transform="translate(0,0)"/>
<path d="" fill="#FFFFFF" transform="translate(0,0)"/>
<path d="" fill="#FFFFFF" transform="translate(0,0)"/>
<path d="" fill="#FFFFFF" transform="translate(0,0)"/>
<path d="" fill="#FFFFFF" transform="translate(0,0)"/>
<path d="" fill="#FFFFFF" transform="translate(0,0)"/>
<path d="" fill="#FFFFFF" transform="translate(0,0)"/>
<path d="" fill="#FFFFFF" transform="translate(0,0)"/>
<path d="" fill="#FFFFFF" transform="translate(0,0)"/>
<path d="" fill="#FFFFFF" transform="translate(0,0)"/>
<path d="" fill="#FFFFFF" transform="translate(0,0)"/>
<path d="" fill="#FFFFFF" transform="translate(0,0)"/>
<path d="" fill="#FFFFFF" transform="translate(0,0)"/>
<path d="" fill="#FFFFFF" transform="translate(0,0)"/>
<path d="" fill="#FFFFFF" transform="translate(0,0)"/>
<path d="" fill="#FFFFFF" transform="translate(0,0)"/>
<path d="" fill="#FFFFFF" transform="translate(0,0)"/>
<path d="" fill="#FFFFFF" transform="translate(0,0)"/>
<path d="" fill="#FFFFFF" transform="translate(0,0)"/>
<path d="" fill="#FFFFFF" transform="translate(0,0)"/>
<path d="" fill="#FFFFFF" transform="translate(0,0)"/>
<path d="" fill="#FFFFFF" transform="translate(0,0)"/>
<path d="" fill="#FFFFFF" transform="translate(0,0)"/>
<path d="" fill="#FFFFFF" transform="translate(0,0)"/>
<path d="" fill="#FFFFFF" transform="translate(0,0)"/>
<path d="" fill="#FFFFFF" transform="translate(0,0)"/>
<path d="" fill="#FFFFFF" transform="translate(0,0)"/>
<path d="" fill="#FFFFFF" transform="translate(0,0)"/>
<path d="" fill="#FFFFFF" transform="translate(0,0)"/>
<path d="" fill="#FFFFFF" transform="translate(0,0)"/>
<path d="" fill="#FFFFFF" transform="translate(0,0)"/>
<path d="" fill="#FFFFFF" transform="translate(0,0)"/>
<path d="" fill="#FFFFFF" transform="translate(0,0)"/>
<path d="" fill="#FFFFFF" transform="translate(0,0)"/>
<path d="" fill="#FFFFFF" transform="translate(0,0)"/>
<path d="" fill="#FFFFFF" transform="translate(0,0)"/>
<path d="" fill="#FFFFFF" transform="translate(0,0)"/>
<path d="" fill="#FFFFFF" transform="translate(0,0)"/>
<path d="" fill="#FFFFFF" transform="translate(0,0)"/>
<path d="" fill="#FFFFFF" transform="translate(0,0)"/>
<path d="" fill="#FFFFFF" transform="translate(0,0)"/>
<path d="" fill="#FFFFFF" transform="translate(0,0)"/>
<path d="" fill="#FFFFFF" transform="translate(0,0)"/>
<path d="" fill="#FFFFFF" transform="translate(0,0)"/>
<path d="" fill="#FFFFFF" transform="translate(0,0)"/>
<path d="" fill="#FFFFFF" transform="translate(0,0)"/>
<path d="" fill="#FFFFFF" transform="translate(0,0)"/>
<path d="" fill="#FFFFFF" transform="translate(0,0)"/>
<path d="" fill="#FFFFFF" transform="translate(0,0)"/>
<path d="" fill="#FFFFFF" transform="translate(0,0)"/>
<path d="" fill="#FFFFFF" transform="translate(0,0)"/>
<path d="" fill="#FFFFFF" transform="translate(0,0)"/>
<path d="" fill="#FFFFFF" transform="translate(0,0)"/>
<path d="" fill="#FFFFFF" transform="translate(0,0)"/>
<path d="" fill="#FFFFFF" transform="translate(0,0)"/>
<path d="" fill="#FFFFFF" transform="translate(0,0)"/>
<path d="" fill="#FFFFFF" transform="translate(0,0)"/>
<path d="" fill="#FFFFFF" transform="translate(0,0)"/>
<path d="" fill="#FFFFFF" transform="translate(0,0)"/>
<path d="" fill="#FFFFFF" transform="translate(0,0)"/>
<path d="" fill="#FFFFFF" transform="translate(0,0)"/>
<path d="" fill="#FFFFFF" transform="translate(0,0)"/>
<path d="" fill="#FFFFFF" transform="translate(0,0)"/>
<path d="" fill="#FFFFFF" transform="translate(0,0)"/>
<path d="" fill="#FFFFFF" transform="translate(0,0)"/>
<path d="" fill="#FFFFFF" transform="translate(0,0)"/>
<path d="" fill="#FFFFFF" transform="translate(0,0)"/>
<path d="" fill="#FFFFFF" transform="translate(0,0)"/>
<path d="" fill="#FFFFFF" transform="translate(0,0)"/>
<path d="" fill="#FFFFFF" transform="translate(0,0)"/>
<path d="" fill="#FFFFFF" transform="translate(0,0)"/>
<path d="" fill="#FFFFFF" transform="translate(0,0)"/>
<path d="" fill="#FFFFFF" transform="translate(0,0)"/>
<path d="" fill="#FFFFFF" transform="translate(0,0)"/>
<path d="" fill="#FFFFFF" transform="translate(0,0)"/>
<path d="" fill="#FFFFFF" transform="translate(0,0)"/>
<path d="" fill="#FFFFFF" transform="translate(0,0)"/>
<path d="" fill="#FFFFFF" transform="translate(0,0)"/>
<path d="" fill="#FFFFFF" transform="translate(0,0)"/>
<path d="" fill="#FFFFFF" transform="translate(0,0)"/>
<path d="" fill="#FFFFFF" transform="translate(0,0)"/>
<path d="" fill="#FFFFFF" transform="translate(0,0)"/>
<path d="" fill="#FFFFFF" transform="translate(0,0)"/>
<path d="" fill="#FFFFFF" transform="translate(0,0)"/>
<path d="" fill="#FFFFFF" transform="translate(0,0)"/>
<path d="" fill="#FFFFFF" transform="translate(0,0)"/>
<path d="" fill="#FFFFFF" transform="translate(0,0)"/>
<path d="" fill="#FFFFFF" transform="translate(0,0)"/>
<path d="" fill="#FFFFFF" transform="translate(0,0)"/>
<path d="" fill="#FFFFFF" transform="translate(0,0)"/>
<path d="" fill="#FFFFFF" transform="translate(0,0)"/>
<path d="" fill="#FFFFFF" transform="translate(0,0)"/>
<path d="" fill="#FFFFFF" transform="translate(0,0)"/>
<path d="" fill="#FFFFFF" transform="translate(0,0)"/>
<path d="" fill="#FFFFFF" transform="translate(0,0)"/>
<path d="" fill="#FFFFFF" transform="translate(0,0)"/>
<path d="" fill="#FFFFFF" transform="translate(0,0)"/>
<path d="" fill="#FFFFFF" transform="translate(0,0)"/>
<path d="" fill="#FFFFFF" transform="translate(0,0)"/>
<path d="" fill="#FFFFFF" transform="translate(0,0)"/>
<path d="" fill="#FFFFFF" transform="translate(0,0)"/>
<path d="" fill="#FFFFFF" transform="translate(0,0)"/>
<path d="" fill="#FFFFFF" transform="translate(0,0)"/>
<path d="" fill="#FFFFFF" transform="translate(0,0)"/>
<path d="" fill="#FFFFFF" transform="translate(0,0)"/>
<path d="" fill="#FFFFFF" transform="translate(0,0)"/>
<path d="" fill="#FFFFFF" transform="translate(0,0)"/>
<path d="" fill="#FFFFFF" transform="translate(0,0)"/>
<path d="" fill="#FFFFFF" transform="translate(0,0)"/>
<path d="" fill="#FFFFFF" transform="translate(0,0)"/>
<path d="" fill="#FFFFFF" transform="translate(0,0)"/>
<path d="" fill="#FFFFFF" transform="translate(0,0)"/>
<path d="" fill="#FFFFFF" transform="translate(0,0)"/>
<path d="" fill="#FFFFFF" transform="translate(0,0)"/>
<path d="" fill="#FFFFFF" transform="translate(0,0)"/>
<path d="" fill="#FFFFFF" transform="translate(0,0)"/>
<path d="" fill="#FFFFFF" transform="translate(0,0)"/>
<path d="" fill="#FFFFFF" transform="translate(0,0)"/>
<path d="" fill="#FFFFFF" transform="translate(0,0)"/>
<path d="" fill="#FFFFFF" transform="translate(0,0)"/>
<path d="" fill="#FFFFFF" transform="translate(0,0)"/>
<path d="" fill="#FFFFFF" transform="translate(0,0)"/>
<path d="" fill="#FFFFFF" transform="translate(0,0)"/>
<path d="" fill="#FFFFFF" transform="translate(0,0)"/>
<path d="" fill="#FFFFFF" transform="translate(0,0)"/>
<path d="" fill="#FFFFFF" transform="translate(0,0)"/>
<path d="" fill="#FFFFFF" transform="translate(0,0)"/>
<path d="" fill="#FFFFFF" transform="translate(0,0)"/>
<path d="" fill="#FFFFFF" transform="translate(0,0)"/>
<path d="" fill="#FFFFFF" transform="translate(0,0)"/>
<path d="" fill="#FFFFFF" transform="translate(0,0)"/>
<path d="" fill="#FFFFFF" transform="translate(0,0)"/>
<path d="" fill="#FFFFFF" transform="translate(0,0)"/>
<path d="" fill="#FFFFFF" transform="translate(0,0)"/>
<path d="" fill="#FFFFFF" transform="translate(0,0)"/>
<path d="" fill="#FFFFFF" transform="translate(0,0)"/>
<path d="" fill="#FFFFFF" transform="translate(0,0)"/>
<path d="" fill="#FFFFFF" transform="translate(0,0)"/>
<path d="" fill="#FFFFFF" transform="translate(0,0)"/>
<path d="" fill="#FFFFFF" transform="translate(0,0)"/>
<path d="" fill="#FFFFFF" transform="translate(0,0)"/>
<path d="" fill="#FFFFFF" transform="translate(0,0)"/>
<path d="" fill="#FFFFFF" transform="translate(0,0)"/>
<path d="" fill="#FFFFFF" transform="translate(0,0)"/>
<path d="" fill="#FFFFFF" transform="translate(0,0)"/>
<path d="" fill="#FFFFFF" transform="translate(0,0)"/>
<path d="" fill="#FFFFFF" transform="translate(0,0)"/>
<path d="" fill="#FFFFFF" transform="translate(0,0)"/>
<path d="" fill="#FFFFFF" transform="translate(0,0)"/>
<path d="" fill="#FFFFFF" transform="translate(0,0)"/>
<path d="" fill="#FFFFFF" transform="translate(0,0)"/>
<path d="" fill="#FFFFFF" transform="translate(0,0)"/>
<path d="" fill="#FFFFFF" transform="translate(0,0)"/>
<path d="" fill="#FFFFFF" transform="translate(0,0)"/>
<path d="" fill="#FFFFFF" transform="translate(0,0)"/>
<path d="" fill="#FFFFFF" transform="translate(0,0)"/>
</svg>
